<svg xmlns="http://www.w3.org/2000/svg" viewBox="0 0 1527.17 374.13"><defs><style>.cls-1,.cls-2{fill-rule:evenodd;}.cls-2{fill:#fff;}</style></defs><g id="Layer_2" data-name="Layer 2"><g id="Layer_0_이미지" data-name="Layer 0 이미지"><path class="cls-1" d="M881.44,211c-3.46.68-7,1.28-10.4,2.06-5.85,1.33-11.18-.09-16.72-2.12A95.3,95.3,0,0,1,829.92,198c-7.14-5.32-12.72-13.26-2.47-22.92,9.23-8.69,19-16.8,28.57-25.12,8.87-7.72,17.91-15.25,26.67-23.1,4.52-4,8.6-8.6,12.82-13,2.53-2.62,3.41-5.62,1.39-9s-4.67-1.83-7.43-1.25c-18.44,3.85-37.12,6.8-55.32,11.58-17,4.45-33.95,2-50.93,2.44-5.54.13-11.09,0-17.1,0,0-1-.41-2.38.07-3.15,4.48-7.23,9.21-14.2,18.27-16.41,5.83-1.42,11.61-3.06,17.41-4.63Q823.29,87.76,844.7,82c13.13-3.55,26.16-7.55,39.44-10.43,10.34-2.24,21-4.07,31.52-4.24,9.55-.15,19.14,2.15,28.7,3.47,2.52.34,6.14.24,7.26,1.78a45.3,45.3,0,0,1,7.06,13.79c1.36,4.83-3.24,7.76-6.25,10.77-7.1,7.1-14.57,13.83-21.62,21-5.41,5.5-4.49,9.09,2.74,11.72,9.69,3.52,19.69,6.29,29.15,10.36,10.19,4.38,14.4,19,5.91,28.43-7.64,8.49-17.12,14.81-27.43,19.93-2.2,1.09-4.09,3.8-5.08,6.2-5.16,12.54-13.73,22.8-21.76,33.44-1,1.31-2.12,3.5-1.64,4.63s2.93,2.19,4.43,2.08c8.34-.62,16.64-1.83,25-2.42,16.81-1.19,32.82-8.76,50-6.37,2.33.33,5.42,1.44,6.41,3.18.78,1.36-.71,4.56-2,6.43A41.53,41.53,0,0,1,978.71,251c-3.65,1.61-7.52,2.7-11.31,4-.77.26-1.62.24-2.39.5-7.51,2.48-15,5.18-22.52,7.42A180.54,180.54,0,0,1,924,267.36c-9.47,1.76-19,3.07-28.53,4.65-10.66,1.76-21.3,3.73-32,5.39-8.72,1.36-17.5,2.34-26.24,3.62-5.63.82-11.2,2.31-16.85,2.72-9.77.72-19.58,1.05-29.37,1-1.86,0-4.18-2.08-5.48-3.81a138.45,138.45,0,0,1-7.63-12c-1.57-2.65-1.61-4.76,1.38-7a55.87,55.87,0,0,1,25.28-11c4.33-.68,8.51-2.17,12.8-3.12,9.05-2,18.05-4.31,27.19-5.68,8.48-1.27,15.11-5.75,21.36-10.86,4.07-3.33,7.37-7.63,10.84-11.65,2-2.35,3.69-5,5.51-7.53Zm-3.75-42.72a58.23,58.23,0,0,1,2,6.23c1,4.73,3.45,5.12,7.58,3.55a67.47,67.47,0,0,1,14-3.91,38,38,0,0,0,21-10.05c6.05-5.68,5.92-5.81-1.1-10.31-1.1-.7-2.06-1.78-3.25-2.15-4.91-1.54-9.37-6.53-15.1-2.61-8,5.49-16,11.18-23.87,16.87C878.31,166.34,878.1,167.44,877.69,168.24Z"/><path class="cls-1" d="M657,162.81c23.84-18.21,49.76-30,77.54-38.55,4.57,5.86,6.25,12,2.33,19.57a40.27,40.27,0,0,0-3.82,13.87c-.64,5.72-5.15,5.87-8.73,7-7.89,2.46-16,4.19-23.92,6.58-12.16,3.66-23.26,9.63-34.52,15.46-8.86,4.59-13,10.59-14.25,20.42a97.31,97.31,0,0,1-7.46,27.64c-4.54,9.92-19.9,17.43-31,13.62-4.15-1.43-7.49-8.49-9-13.63-4.1-13.93-4.41-28.31-2.27-42.72C604,178,606,164,607.78,149.87a18.53,18.53,0,0,0-1-7.71c-.94-2.94-3.13-4.24-6.19-2.4-4.46,2.7-8.92,5.4-13.34,8.17-12.35,7.78-24.87,15.31-37,23.46-14,9.46-27.62,19.58-41.53,29.22-11.78,8.16-24.33,15.32-35.39,24.33-7.14,5.81-14.85,4.91-22.54,6-5.55.77-11.18.94-17.82,1.45-3.06-7.59-7.53-14.9-8.82-22.73-1.77-10.82-1.27-22-1.5-33.08a56.45,56.45,0,0,1,1-11.75c2.27-11.69,4.41-23.43,7.39-34.94,3.4-13.13,10.42-24.56,18.7-35.22,1.85-2.4,3.74-2.87,6.79-1.76,7.49,2.71,15.22,4.81,22.79,7.32,4.38,1.46,4.12,5.41,3.48,8.7-2.7,13.91-5.85,27.72-8.59,41.62-1.19,6-1.92,12.07-2.57,18.14-.49,4.59,7.59,10.5,11.65,8.44,14-7.1,28-14.15,41.78-21.72q23.65-13,46.81-27c15.38-9.22,30.58-18.78,42.57-32.49,4.35-5,8.85-9.82,12.93-15,3.84-4.9,8.52-7,14.64-6,6.48,1.06,13.07,1.6,19.42,3.14a11.42,11.42,0,0,1,8.42,13.31c-3.85,20.16-7.93,40.27-11.8,60.42C657.45,155.09,657.42,158.44,657,162.81Z"/><path class="cls-1" d="M114.35,127.94c-8.45-5-16.85-3.4-24.89-.87-26.88,8.44-54.5,8.54-82.22,8-9.17-.19-8.13.36-5-8.18,4.34-12,14.41-14.52,24.43-17.65,7.61-2.38,15.4-4.15,23.1-6.25S65.26,98.4,73.1,96.47c14.72-3.62,29.38-7.62,44.28-10.26,15.26-2.7,30.85-.91,46.29-1.15a4.75,4.75,0,0,1,3,1.25c6.66,6.32,9.11,22.27,4.08,30.21-6.14,9.71-13,19-19.37,28.53-3.44,5.15-6.76,10.41-9.73,15.83-2.38,4.36,1.54,6.42,4.35,7.51a272.85,272.85,0,0,0,27.59,9.47,27.58,27.58,0,0,1,20.43,25.32c.53,13-4.64,22.9-14.49,30.6-6.79,5.32-13.64,10.75-21.12,14.94-9.08,5.09-18.88,8.9-28.34,13.32-4.39,2-8.63,4.45-13.11,6.3-8.07,3.35-15.85,8.13-25,7.51a24.16,24.16,0,0,1-10.9-3.43c-11.06-7-20.27-16.12-23.64-29.06-1.23-4.69.2-10.87,2.31-15.5,5.12-11.19,11.11-22,17.2-32.71,6.56-11.56,13.92-22.67,20.41-34.27,5.28-9.45,9.76-19.33,14.63-29C112.66,130.6,113.46,129.42,114.35,127.94Zm38.25,73.47c-8.23-3.6-15.37-6.92-22.71-9.75-1.28-.49-4.2.58-4.93,1.79q-7.35,12.11-14,24.63c-2,3.88-3.41,8.13-5.68,13.65C123.3,223.57,141.36,218.53,152.6,201.41Z"/><path class="cls-1" d="M1062,156.59c10.86,2.43,20.77-.83,30.59-3,13.42-3,26.72-4.31,39.35,1.61,7.37,3.45,13.77,9,20.6,13.6-.1.62-.21,1.25-.31,1.87-3,1.45-5.92,2.94-8.9,4.36-16.25,7.68-34.08,9.55-51.21,14-12.76,3.31-24.46,9-33.72,18.32-6.18,6.23-9,14.63-10.63,23.47-2,10.63-5,21.07-7.57,31.59a33.24,33.24,0,0,0-.89,3.8c-1.23,9.84-9.93,10.26-16.62,12.61-5.63,2-11.74,2.69-17.71,3.45-1.39.18-4.35-1.66-4.38-2.63-.2-7.62.11-15.26.34-22.89.27-9.29.57-18.58,1-27.86.6-13.94,1.09-27.89,2-41.8.66-10,1.74-20,3-29.88,1.19-9,2.77-18.06,4.41-27,2.41-13.14,4.47-26.37,7.73-39.29A158.29,158.29,0,0,1,1029,63.67c2.87-6.23,7.38-11.72,11.25-17.48,2.54-3.78,5.41-3.58,9.27-1.39,6.93,3.92,13.38,8.11,16.28,16a26.05,26.05,0,0,1,2,8c.44,13.37-.31,26.56-3.43,39.74-2.74,11.57-4.15,23.51-5.25,35.37C1058.78,148.05,1061,152.49,1062,156.59Z"/><path class="cls-1" d="M1433.93,158.1c-.36,3.31-.74,6.62-1.07,9.94-1,10.06-1.84,20.14-3,30.19-1.6,14.44-8.64,25.21-22.38,30.66-6.82,2.7-14,4.42-21.93,6.87-.31-2.73-.62-4.26-.63-5.79,0-8.33.08-16.66,0-25-.26-16.66-1.2-33.32-.83-50,.43-18.68,1.48-37.38,6.1-55.67,2.15-8.51,2.94-17.47,6-25.61,3.53-9.35,8.63-18.15,13.59-26.88,1.78-3.13,4.87-5.77,7.9-7.83a8.57,8.57,0,0,1,6.87-.95,123.22,123.22,0,0,1,17,8.32c3.21,1.9,5.4,4.72,4.49,9.37-2.61,13.46-5.29,27-6.9,40.56-1.58,13.3-1.88,26.75-2.84,41.63,7.72-2.25,14.14-4.21,20.61-6,11.1-3,22.2-6.09,33.35-8.94,6.12-1.57,12.39-2.57,18.51-4.14,3.92-1,7.23-.6,10,2.42s6.51,5.69,7.89,9.27c2.15,5.59-3,8.54-6.71,11.35-11.17,8.36-23.58,14.33-36.56,19.48s-26.09,7-39.75,4.46c-1.72-.32-3.31-2-4.66-3.4a43.3,43.3,0,0,1-3.68-4.78Z"/><path class="cls-1" d="M368,158.93c-7.54,2.54-14.14,5.11-20.93,7-11.85,3.29-24.21,5.13-35.61,9.51C300.73,179.54,290.61,185.6,281,192c-3.24,2.14-4.94,7.66-5.9,12-2.56,11.52-4.92,23.05-10.23,33.7a4.74,4.74,0,0,1-2.68,2.29c-8.36,2-16.76,3.88-25.15,5.79-5,1.14-6.59-.35-7.18-5.36-1.06-8.92-3-17.75-3.77-26.68-.85-10.44-1.58-21-.92-31.41a270.87,270.87,0,0,1,5-37.76c2.87-13.79,6.22-27.67,11.29-40.76A69.1,69.1,0,0,1,259.84,77.4c2.76-2.48,4.92-1.3,7.25-.33,8.82,3.65,20.46,14.21,19.1,23.06-1.46,9.49-3.3,18.94-5.49,28.29-1.33,5.66-3.08,11.24.31,16.53,1.17,1.81,4.09,4.09,5.71,3.76,8.25-1.69,16.27-4.4,24.47-6.32,12.48-2.92,25.12-5.55,37.74-1.18,3.19,1.11,5.91,3.94,8.48,6.38C360.77,150.77,363.76,154.34,368,158.93Z"/><path class="cls-1" d="M1323.36,39.9c2.34,4.3,3.87,7.63,5.86,10.67,5,7.52,10.15,14.88,15.17,22.35,3.16,4.7,4.8,9.61,3.73,15.56-.79,4.42-.35,9.09-.19,13.64.17,4.89.22,9.82.51,14.68.41,6.62-2.23,13.55-4.18,20.16-2.79,9.45-6,18.78-9.31,28.07-3.12,8.77-7.19,17.06-13.57,24-4.26,4.65-8.57,9.25-12.87,13.87s-9.94,6.53-15.67,6.92c-12.92.86-25.89.86-38.85,1.15a109.19,109.19,0,0,1-13-.14,5.6,5.6,0,0,1-3.84-3.2c-2.13-6.47-4.58-13-5.49-19.67-1.28-9.46-4-19.66,5.79-27,9.43-7,18.71-14.27,28.19-21.24,11.06-8.15,21.47-16.84,29.34-28.37,6.68-9.79,8.79-20.92,11-32.14,1.44-7.16,2.44-14.61,5.29-21.21C1314,51.83,1318.8,46.55,1323.36,39.9Zm-24.58,107.2c-11.62,7.45-22.27,13.51-29.24,24.08-1.4,2.12-1.08,4.22,1.64,5.55,7.06,3.46,14.56,2.07,21.91,2,.94,0,2.55-1.91,2.69-3.07C1296.89,166.66,1297.72,157.63,1298.78,147.1Z"/><path class="cls-1" d="M1387,251.36c.81,3.26,1.61,5.54,1.92,7.88,1.38,10.32,7.87,17.37,16.2,22,6.83,3.78,14.93,5.25,22.45,7.78,4.54,1.52,9.16,2.87,13.56,4.72,9.52,4,14.64,16.4,12,26.47-2.85,10.68-10.63,16.71-18.64,23.28-11.32,9.27-24.8,14-37.64,20.13-4.65,2.23-9.63,3.89-14,6.57-8.45,5.17-17.44,4.4-26.29,2.65a145.46,145.46,0,0,1-23.73-6.91c-10-3.83-14-12-14.94-22.45-1.26-14.57,6.34-25.19,15.26-34.92,14.78-16.14,30.21-31.7,45.33-47.54C1381.16,258.11,1383.71,255.05,1387,251.36Zm-25.58,87c7,1.6,11.95,4.76,17.21,2.25,8.25-3.93,16.29-8.3,24.34-12.63,5.72-3.09,10.17-7.18,9-14.53-.2-1.2-1.25-3.11-2.12-3.23-8.72-1.24-17.49-2.89-26.24-2.87-3.72,0-9,2.73-10.85,5.84C1368.2,320.84,1365.26,329.44,1361.4,338.34Z"/><path class="cls-1" d="M1209.7,228.82c-3.16-4.92-6.41-9-8.62-13.64-5-10.51-10.36-21-14.1-32a136.66,136.66,0,0,1-5.87-28.53,290.9,290.9,0,0,1-2-37.19c.18-10.1,2.43-20.14,3.38-30.25,1.13-12,7.13-22.2,11.58-33,1.69-4.09,4.72-4,8.13-2.4,11.58,5.56,21.22,13.64,27.9,24.48,2.44,4,2.45,9.7,2.67,14.67.25,5.5-.48,11.06-.87,16.59-1,13.61-1.51,27.28-3.15,40.82-1.59,13.1-3.93,26.15-6.73,39.06-2.49,11.51-6,22.79-9.19,34.14C1212.27,223.71,1211.11,225.66,1209.7,228.82Z"/><path class="cls-1" d="M855.54,7c5.43,0,11-.8,16.22.28,3.67.76,6.94,3.89,10.15,6.28,9.75,7.24,19.54,14.43,29,22.06,5.27,4.26,9.06,9.82,10,16.85.66,4.9-6,9.44-12.24,8.42-16.28-2.67-30.73-10.17-45-17.81C856.07,39,849.46,33,842.34,27.93c-5.11-3.63-6.33-9.58-3.86-13.85,2-3.51,7.82-5,12.11-7C852,6.46,853.88,7,855.54,7Z"/><path class="cls-1" d="M129.17,51.52c-.08,1.61-.21,3.22-.23,4.84-.07,8.24-1.48,9.15-9.27,5.92-16.17-6.71-30.11-17-43-28.46-4.76-4.25-8.44-10.44-10.83-16.45C63.08,10.43,68.72,2.14,76.11.47c2.39-.55,5-.28,7.48-.31,4.51,0,9.07-.4,13.52.12,1.9.22,3.94,2,5.3,3.6C112.09,15.3,121.5,27,126.91,41.16a102.34,102.34,0,0,1,2.78,10.35Z"/><path class="cls-2" d="M877.69,168.24c.41-.8.62-1.9,1.28-2.38,7.91-5.69,15.83-11.38,23.87-16.87,5.73-3.92,10.19,1.07,15.1,2.61,1.19.37,2.15,1.45,3.25,2.15,7,4.5,7.15,4.63,1.1,10.31a38,38,0,0,1-21,10.05,67.47,67.47,0,0,0-14,3.91c-4.13,1.57-6.61,1.18-7.58-3.55A58.23,58.23,0,0,0,877.69,168.24Z"/><path class="cls-2" d="M152.6,201.41c-11.24,17.12-29.3,22.16-47.29,30.32,2.27-5.52,3.63-9.77,5.68-13.65q6.63-12.51,14-24.63c.73-1.21,3.65-2.28,4.93-1.79C137.23,194.49,144.37,197.81,152.6,201.41Z"/><path class="cls-2" d="M1298.78,147.1c-1.06,10.53-1.89,19.56-3,28.55-.14,1.16-1.75,3.06-2.69,3.07-7.35.08-14.85,1.47-21.91-2-2.72-1.33-3-3.43-1.64-5.55C1276.51,160.61,1287.16,154.55,1298.78,147.1Z"/><path class="cls-2" d="M1361.4,338.34c3.86-8.9,6.8-17.5,11.32-25.17,1.84-3.11,7.13-5.83,10.85-5.84,8.75,0,17.52,1.63,26.24,2.87.87.12,1.92,2,2.12,3.23,1.19,7.35-3.26,11.44-9,14.53-8,4.33-16.09,8.7-24.34,12.63C1373.35,343.1,1368.36,339.94,1361.4,338.34Z"/></g></g></svg>