<svg xmlns="http://www.w3.org/2000/svg" viewBox="0 0 816.11 318.33"><defs><style>.cls-1{fill:#f2950b;}.cls-2{fill:#e75806;}.cls-3{fill:#ae0c57;}.cls-4{fill:#221817;}.cls-5{fill:#fcfcfc;}.cls-6{fill:#261855;}.cls-7{fill:#231818;}.cls-8{fill:#fcfbfb;}.cls-9{fill:#fcfbf9;}.cls-10{fill:#f9fdf9;}.cls-11{fill:#fafcf6;}.cls-12{fill:#261c4c;}.cls-13{fill:#b00e59;}.cls-14{fill:#fef0fc;}.cls-15{fill:#f9fbf5;}.cls-16{fill:#f4fefc;}.cls-17{fill:#f3f0f7;}.cls-18{fill:#a11358;}.cls-19{fill:#fbfae8;}.cls-20{fill:#ec5807;}.cls-21{fill:#28204a;}.cls-22{fill:#f9f8f6;}.cls-23{fill:#f3fdfb;}.cls-24{fill:#f9f9f7;}.cls-25{fill:#ef9a01;}.cls-26{fill:#fbfdf1;}.cls-27{fill:#271b49;}.cls-28{fill:#f7f8eb;}.cls-29{fill:#e89e1e;}.cls-30{fill:#f0fcec;}.cls-31{fill:#a71456;}.cls-32{fill:#effdfc;}.cls-33{fill:#edfdfb;}.cls-34{fill:#af0e58;}.cls-35{fill:#fbe8cb;}.cls-36{fill:#fce6f8;}.cls-37{fill:#f7faf0;}.cls-38{fill:#f8f8f5;}.cls-39{fill:#951b53;}.cls-40{fill:#f2fdfc;}.cls-41{fill:#ecfdfc;}.cls-42{fill:#fcfdeb;}.cls-43{fill:#e7fefd;}.cls-44{fill:#f0f1ed;}.cls-45{fill:#f8fef0;}.cls-46{fill:#f9ddf1;}.cls-47{fill:#fefee8;}.cls-48{fill:#7d385a;}.cls-49{fill:#f8eec8;}.cls-50{fill:#f3f9ed;}.cls-51{fill:#fef8d4;}.cls-52{fill:#fcfaeb;}.cls-53{fill:#26223a;}.cls-54{fill:#b30f59;}.cls-55{fill:#f5f5f2;}.cls-56{fill:#e6b65b;}.cls-57{fill:#2f254d;}.cls-58{fill:#fefefe;}.cls-59{fill:#ee9907;}.cls-60{fill:#f5950a;}.cls-61{fill:#f79212;}.cls-62{fill:#f99407;}.cls-63{fill:#ee9614;}.cls-64{fill:#ea9b04;}.cls-65{fill:#f89111;}.cls-66{fill:#f39510;}.cls-67{fill:#f69503;}.cls-68{fill:#f3951a;}.cls-69{fill:#e99a07;}.cls-70{fill:#df992f;}.cls-71{fill:#e0a745;}.cls-72{fill:#f88f1f;}.cls-73{fill:#eaa231;}.cls-74{fill:#e59d01;}.cls-75{fill:#ea9f2e;}.cls-76{fill:#d9a035;}.cls-77{fill:#e7a43b;}.cls-78{fill:#fcf5ce;}.cls-79{fill:#f58e2a;}.cls-80{fill:#f8e1a8;}.cls-81{fill:#e1ac46;}.cls-82{fill:#dd9d39;}.cls-83{fill:#e0ad5a;}.cls-84{fill:#ea5a09;}.cls-85{fill:#e75610;}.cls-86{fill:#e65b00;}.cls-87{fill:#e95813;}.cls-88{fill:#f34f18;}.cls-89{fill:#df5d04;}.cls-90{fill:#e75612;}.cls-91{fill:#f15501;}.cls-92{fill:#e45811;}.cls-93{fill:#e75b00;}.cls-94{fill:#df5f00;}.cls-95{fill:#dc5d0a;}.cls-96{fill:#eb5414;}.cls-97{fill:#f15508;}.cls-98{fill:#fcf8e6;}.cls-99{fill:#d75f0c;}.cls-100{fill:#fb4d0b;}.cls-101{fill:#d96005;}.cls-102{fill:#d95d11;}.cls-103{fill:#e27331;}.cls-104{fill:#ee5b19;}.cls-105{fill:#f64f10;}.cls-106{fill:#b30a56;}.cls-107{fill:#a11258;}.cls-108{fill:#e8991d;}.cls-109{fill:#da6531;}.cls-110{fill:#eefdfa;}.cls-111{fill:#dea743;}.cls-112{fill:#fefce6;}.cls-113{fill:#e89e3c;}.cls-114{fill:#fef5c9;}.cls-115{fill:#df5d0d;}.cls-116{fill:#f0540b;}.cls-117{fill:#bf0358;}.cls-118{fill:#e15d00;}.cls-119{fill:#fe4806;}</style></defs><g id="Layer_2" data-name="Layer 2"><g id="Layer_1-2" data-name="Layer 1"><path d="M40,225.29l-2.29-1.2c-1.95-.6-3.79-1.33-4.53-3.49C18.28,208,8.53,192.43,5.75,172.86a72.81,72.81,0,0,1,10.92-50.57c.71-1.12,1.42-2.24,2.1-3.38.07-.1-.06-.31-.17-.75a49.92,49.92,0,0,1-6.19-.38C4.66,116.39-.91,109.71.12,102.08,1.4,92.61,5.75,88.54,15.23,88.36c14.49-.28,29-.24,43.49,0,4,.07,5.36-.7,5.28-5.07-.29-15.49-.17-31,0-46.48A14.41,14.41,0,0,1,75,23.06,15,15,0,0,1,91.4,29.85c1.9,3.15,2,6.65,2,10.15,0,15.33,0,30.66,0,46,0,2.34.15,3.8,3.06,4.58,25.91,6.88,43.15,23.28,52.29,48.37a8,8,0,0,0,1,1.3c.34-5.67.3-10.85,1-15.93,3.72-26.45,22.7-41.35,49.34-38.89a52.35,52.35,0,0,1,9.36,1.41,14.59,14.59,0,0,1,10.43,17.42,15,15,0,0,1-17,11.23c-.33,0-.64-.19-1-.22-19.38-2-22.11,4.51-22.08,18.78q.09,44.49,0,89c0,11.57-9.19,19-19.38,15.82-6.35-2-10.28-7.71-10.32-15.45-.08-13.32,0-26.64-.36-40.07-3,7.83-6.36,15.44-11.46,22.09-2.93,3.81-8,6.94-8.9,11.06s.61,9.4.61,14.19c0,11.67-.07,23.33,0,35,.13,13.42,7.66,21.87,21.05,22.37,16,.6,32,.25,48,.41,11.43.11,18.34,8.08,16,18.27-1.35,5.95-6.48,11.2-12.54,11.17-19.48-.09-39,1.56-58.41-.86-24-3-41.57-21.62-43.21-45.84-.77-11.44-.37-23-.36-34.46,0-3-.28-3.9-3.83-3-18.15,4.7-35.6,2-52.42-5.85A6.93,6.93,0,0,1,40,225.29Z"/><path d="M461.64,234.18c-14.83-2-26.89-14.82-27.55-29.78-.39-8.82-.34-17.67,0-26.49.44-11.89,9.25-22.33,22.21-26.79a54.2,54.2,0,0,1,18.1-3.12q25.74.13,51.5,0c8.66,0,10.22-1.69,10.23-10.17,0-3.5,0-7,0-10.5-.06-6.76-2.44-9.62-9.14-10.75a33.33,33.33,0,0,0-5.48-.23q-35.5,0-71,0c-3.92,0-8.05.34-11.45-2-5.76-3.9-7.15-9.94-5.67-16.73A13.54,13.54,0,0,1,446.32,87c27.66-.15,55.34-.63,83,.12,20.36.55,36,17.73,36.35,38.07.12,6.49.49,13.05-.2,19.48-2.17,20.48-17,32.7-39.89,33-15.83.21-31.67,0-47.5.06-1.5,0-3,0-4.5,0-9.11.26-10.17,1.34-10.17,10.31,0,3.84.18,7.68,0,11.5-.22,4,1.78,5.83,5.49,6.15,2,.17,4,.24,6,.24,24.5,0,49,.11,73.5-.05,6.41,0,11.85,1.29,15.58,6.91,1.82,2.74,4.22.87,6.31.65,2.54-.26,1.65-2.51,1.65-4,.06-22.33-.17-44.67.13-67,.22-16.74,5.16-31.93,17.85-43.54,12.85-11.77,28.55-15.21,45.45-13.67,7.24.66,12.76,8.06,12.37,15.27a14.7,14.7,0,0,1-13.79,14c-2.65.19-5.34-.09-8,.14C611.4,115.84,603.2,124,602,138.54c-1.33,16.47-.39,33-.61,49.48-.1,7,.18,14-.12,21-.15,3.64,1.17,4.5,4.54,4.39,6.66-.23,13.34-.15,20-.05,15.26.23,25.27,10.22,25.37,25.5.11,17.5,0,35,0,52.5,0,5.82-1.18,11.22-5.26,15.66-2.77-.25-5.48-.34-7.72-2.55-1.33-1.32-3.45-1-5.27-1q-33.66,0-67.31,0c-2.92,0-5.5.2-7,3.46-1.23,2.67-3.27,1.3-5,.22-4.11-4.55-5.51-10-5.52-16q0-25.87,0-51.76c0-2.36,0-4.35-3.13-4.25-1.2-1.75-2.93-1.71-4.84-1.7-20.29.11-40.59.07-60.88,0-2.53,0-5.32.57-7.37-1.93,2.11-2.59,4.94-2,7.48-2q29.94-.09,59.89,0c.94,0,1.94.37,3.13-.41-1.4-1.55-3.22-1.54-4.92-1.54-25.45-.05-50.9-.09-76.35,0a8.33,8.33,0,0,0-4.45.83c2.62,2.52,5.68,2.41,8.8,1.92s5.58,0,6.63,3.87C468.45,234.34,465,233.86,461.64,234.18Z"/><path d="M332.87,155.74c-1.88,1.77-4.1,3.26-5.06,5.83-1,4.38-4.92,5.94-7.91,8.42a3,3,0,0,0-1.94,2,4.48,4.48,0,0,1-3,3.07,3.28,3.28,0,0,0-2,2,5.79,5.79,0,0,1-4.14,4,11.62,11.62,0,0,0-4,3.73c-1,3.47-4.09,4.73-6.84,6.35-15.58,13.19-31.09,26.47-47.16,39.08-2.76,2.16-5.47,4.32-9.07,4.94-11,1.88-19.56-7.27-17-18.23.19-.81.28-1.63.41-2.45a6.34,6.34,0,0,1,2.73-4.35L229,209c.81-1.78,2.87-1.75,4.13-2.87,31.95-23.83,83.5-69.54,88.48-88.07h-6.36c-25.31,0-50.63.06-75.94,0-7.28,0-12.56-4.09-14.45-10.71A14.74,14.74,0,0,1,230.65,91a15.93,15.93,0,0,1,9.46-2.6c26.14-.06,52.29-.15,78.44-.12a47.93,47.93,0,0,1,9.91,1.05c18.73,4,27.27,18.64,21.83,37-3,10.12-9.44,18.2-15.28,26.66A4.46,4.46,0,0,1,332.87,155.74Z"/><path class="cls-1" d="M726,158.22a.55.55,0,0,0-.66-.34c-2.08-.42-2.71-2.12-3.34-3.81l-4.06-5.87c-1.4-4.13-5.79-6.51-6.49-11a1.88,1.88,0,0,1,1.81-1.68c1.31.13,1.53-.73,1.56-1.77a9.75,9.75,0,0,1,.8-3.73c.8-1.77-.79-1.13-1.46-1.4-3.94-.11-2.12,2.16-1.61,3.88.06,2-1.1,3.12-2.76,3.88l-1.51-.41c-1.92-.56-1.33-2.65-2.3-3.78-.84-2.31-1.3-4.84-3.7-6.22-1-.35-1.14-1.2-1.3-2.06a5.35,5.35,0,0,0-1.17-3.37,4.94,4.94,0,0,1-.59-1.11,6.16,6.16,0,0,0-1.73-3.37,5.48,5.48,0,0,1-.42-1.3,4.51,4.51,0,0,1,.45-2.68c1.22-1.59,2.83-2.84,4-4.43,1.21-1.06,1.27-2.8,2.35-3.93,1.54-.93,3.17-2,4.85-2.28,5.46-.79,7-5.15,9-9.17-.17-1.38.77-2,1.74-2.6a5.76,5.76,0,0,1,1.27-.49c3.34-.07,6-1.82,8.56-3.63A17.3,17.3,0,0,1,733,83.36a7.77,7.77,0,0,1,1.41-.39,14.88,14.88,0,0,1,2.21-.2c3.74.61,7.23-1.15,10.91-1.19a3.14,3.14,0,0,1,1.41,1.49c.43,2.08,3.25,1.06,3.84,3a6.72,6.72,0,0,1,.41,2c.06.68.08,1.35.13,2a4.44,4.44,0,0,0,.54,1.89c5,1.23,9.95,1.59,14.76-.77,4.57-1,9.2-.26,13.78-.52,2.32.15,2.29-1.69,2.66-3.19a3,3,0,0,1,2.59-2.29c2.31-.16,4,1.8,6.26,1.81,5,1.3,7.7,5.06,10.07,9.21a2.36,2.36,0,0,0,1.83,2A2.15,2.15,0,0,1,807,99.82c.55,2.16.56,4.57,2.8,6a1.63,1.63,0,0,1,.9.81c.66,1.26-.29,3.27,1.83,3.83a5,5,0,0,1,.4,2c-.6,6,3.06,11.47,2.16,17.59-.62,4.25-1.18,8.43-3.64,12.09a1.79,1.79,0,0,1-1.5.08c-1-1-1.1-2.33-1.24-3.63,0-1-.33-2-.44-3,.29-5.21,2-10.51-.84-15.55a12,12,0,0,1-.34-4.54c-.61,1.77,1.16,5.31-3.22,4.73-1.38-1.57-.54-3.46-.87-5a146.15,146.15,0,0,1-.38,16.81c-3.36,8.22-.52,15.13,4.56,21.57,1,1.71.37,3.27-.74,4.54-3.66,4.21-7.19,8.59-12.54,10.85a7.55,7.55,0,0,0-3.68,1.47,5.19,5.19,0,0,1-1.2.48c-1.56.34-3.41.13-4.12,2.13-.27.33-.55.64-.84.94l-.08-.06c-1,1.15-2.43,1-3.78,1.06a12.59,12.59,0,0,0-6.9,1.95c-5.55,1-11.14.51-16.72.38-2.65-.06-4.49-1.86-6.55-3.17-4.86-2.37-9.87-4.49-14-8.06-1.46-1.33-2.81-2.85-5-3.08l-1.17-1A10.28,10.28,0,0,1,726,158.22Z"/><path d="M386.41,176.74c0,16,.23,32-.08,47.95-.19,10.13-8.18,16.26-17.81,14.39-7-1.37-11.53-7.23-11.54-15.32,0-24.15-.1-48.29,0-72.44.05-9.47-.83-19,.6-28.42,4.39-29,26.65-39.38,50.55-37.33a40.18,40.18,0,0,1,8.83,1.5,14.39,14.39,0,0,1,9.44,17.5c-2,7.63-9,12.34-16.62,11a42,42,0,0,0-9.94-.52c-8.28.47-12.72,4.44-12.89,12.78-.32,16.31-.09,32.63-.09,48.94Z"/><path class="cls-2" d="M702.17,15c6.58.16,12,3.17,17.13,6.94-2.19,1.57-4,1.43-6.4-.2-2.24-1.51-5.08-3.1-8.12-1.2a7.26,7.26,0,0,1-1.37.43,4.1,4.1,0,0,1-3.46-.68c.17-1.69.82-3.43-2.25-3A32.33,32.33,0,0,0,684,22.51a9.14,9.14,0,0,0-3,4.86c.64,2.2,1.72.79,2.68.32a4.91,4.91,0,0,1,1.33-.52,5.65,5.65,0,0,1,3.59.58c6,1.31,11.92,1.93,17.79-.37A11.54,11.54,0,0,1,707.62,24a3.86,3.86,0,0,1,1.9-1c3.52-.65,7.09,1,10.61-.22,3,.47,4.51,2.5,5.41,5.17a2.48,2.48,0,0,1-.69,2.55c-1.94,1.12-1.55,3.27-2.18,5a2,2,0,0,1-.83.81c-1.41,3.12-.85,6.16.39,9.17a5.19,5.19,0,0,1,.6,1.23c.43,1.06.11,2.25.69,3.44C725.36,48.7,724.72,44,729,46c1.38,5,0,10.15.3,15.21-1.7,5.88-4.91,10.58-10.49,13.43-3.1-.06-4.83,2.18-6.78,4.06A12.28,12.28,0,0,1,706,81c-3.27-.26-6.86,1.33-9.68-1.6-1.7-1.52-3.24.59-4.09.23.77.05,2.19-1.24,3.83-.49.66,1,.22,2.34-.69,2.24-2.51-.27-.71,1.85-1.56,2.39a4.84,4.84,0,0,1-5.78.74,5.65,5.65,0,0,1-1.46-1.8c-3-2.64-6.62-.84-9.92-1.32-2.12-.31-4.23.68-6.37.11-1.1-.63-1.19-1.67-1.1-2.78a4.69,4.69,0,0,1,.53-1.48c1.59-6.64,1.23-13.32.22-20a30.39,30.39,0,0,0-2.16-2.75,4.94,4.94,0,0,1-.64-1.2c-.81-2.16.48-5-1.95-6.65A3.79,3.79,0,0,1,665.4,41c2.74-.52.94-3,1.83-4.31a3.76,3.76,0,0,1,.67-1.08c1.65-1.2.8-3.08,1.22-4.62,6-10.76,14.67-17,27.44-16.47C698.43,14.72,700.35,14.15,702.17,15Z"/><path class="cls-3" d="M627,4c4.74-.3,8.08,3,12,4.72a7.07,7.07,0,0,1,4.6,4.05c.27,2.51-.28,5.57,3.79,5.43a10.72,10.72,0,0,1,2.46,6.56,6.1,6.1,0,0,1-.45,1.93c-.28.72-1.12,1.29-.57,2.21,0-1.32.7-1.11,1.5-.69a3.39,3.39,0,0,1,.33,3.26c-2.38.89-.4,2.75-.89,4.07-.54,2-.45,4.29-2.55,5.57L645.92,44c-2.31,0-1.85-2.26-3.08-3.73,1.22,2.39,2.13,4.49,1.23,6.83-.63,2.82-2.83,4.65-4.34,6.92a2.84,2.84,0,0,1-3.48.5c-1.68-1.2.08-3-.49-4.53-5.17,3.37-5.3,4.17-1.26,6.27a4.69,4.69,0,0,1,.21,3.81,4.86,4.86,0,0,1-3.58,3.08c-3.56-.22-6.61,3.39-10.41,1.43s-4.39-6.34-7.61-9.84c.78,4.77,2.95,7.39,6.55,9,1.65,2.17,4,3.21,6.5,4.1a.8.8,0,0,1-.42,1.1c-2.6,2.66-4.78,2.25-7.28-.45-4.45-4.79-9.37-9.17-12.6-15a34.89,34.89,0,0,0-2.47-6.39,3.6,3.6,0,0,1,.28-1.33c1.66-2.08.83-4.71,1.5-7a6.51,6.51,0,0,1,.55-1.2,6,6,0,0,0-.1-7.18,5.87,5.87,0,0,1-.55-1.26c-.62-3.13.24-6.6-3-9.06-1.57-1.2-.88-3.34-.13-5.07,4.37-6.84,10.56-10.59,18.7-11C622.79,3,624.9,4,627,4Z"/><path class="cls-4" d="M553.64,307.16c1.77.1,4.17,1.95,4.09-2.18-.05-2.21,2.11-3,4.42-3q37.41.08,74.83.05c1.83,0,3.88-.06,3.66,2.76,2.24-.42,3.74,1,5.3,2.2-4.13,5.72-9.8,9.07-16.75,9.16q-29.36.38-58.7,0C563.52,316.13,557.81,312.87,553.64,307.16Z"/><path class="cls-5" d="M718,74a24,24,0,0,0,10-12l1.09-.93c2.86-1.47.4-5.68,3.49-7.06,1.73,1,.19,3,1.42,4,.33.67.66,1.34,1,2a6.55,6.55,0,0,0,1,6c1,2.38-2.46,4.19-.73,6.9.58.9-1.27,1-2.19,1.07-1.63.08-3-.22-3.07-2.31-.09-1.71.38-3.56-.72-5.38-3.16,4.82-1.33,8.7,3.26,9.84,15.5,3.88,31.2.88,46.77,1.88,2.08.13,4.44-.57,5.68,2-1.4,1.58-3.32,1.3-5.13,1.42-5.61,0-11.12-1.34-16.78-1.08a109.86,109.86,0,0,0-12.31,1c-3.7-1.21-6.72,1.85-10.26,1.64-2.19.27-4.56-.69-6.54,1l-.35.2-.39,0A6.69,6.69,0,0,0,729,86.4a68.92,68.92,0,0,1-8.95,3.67l-.2-.13c-1.25.82-2.84,1-3.88,2.19a7.88,7.88,0,0,1-1.1.61,6,6,0,0,0-2.48,1.72A5.91,5.91,0,0,1,711,95.64a20.37,20.37,0,0,0-4.85,3,6.48,6.48,0,0,1-1.22.41c-1.67.22-3.43.18-4.57,1.77a7.34,7.34,0,0,1-3.52,2.23,8,8,0,0,1-4.25-.2c-1-.41-1.85-1.28-2.95-1.62A4.91,4.91,0,0,1,688,100c.3-1.17-.71-2.79,1.06-3.43.85-.31,2.47,2.57,2.6-.34.08-1.6-2.06-2.26-3.48-2.12-6.9.69-13.74-1.37-20.67-.2-3.49.59-7-1.31-10.65-.29-.13,0-.57-1.06-.86-1.62,1.27-1.64,2.48-3.33,3.86-4.89,1.26-1.72,2.65-3.26,5-3.39,6.88-.4,13.79.35,20.67-.46A3.4,3.4,0,0,1,688,84c2.06,0,4.18.54,6-.85,3.43-3.19,8.19-1.26,12-3.08,2.32.16,3.93-1.58,6-2.22C713.84,76.35,715.53,74.57,718,74Z"/><path class="cls-6" d="M578,42.16c2.89.61,4.52,2.71,6,5,3,6,4.7,12.55,7.21,18.76,1.37,2.8.7,5.86,1.17,8.78.33,2-1,2.68-2.54,2.93-2.93.46-5.88.76-8.83,1.13a23.7,23.7,0,0,0-8,0,16,16,0,0,1-8.22-1.69c.1-.13.33-.29.3-.37-.67-1.83-.76-4.22-3.94-3.19-1.66.53-3.19-.53-4.56-1.52-1.39-3-3.29-5.73-4.94-8.55C549,59,552.78,48.16,557.29,45.23c4.82-3.13,9.71-6,15.78-2.94C574.54,43,576.34,42.31,578,42.16Z"/><path class="cls-7" d="M461.64,234.18c3-1.81,6-1.18,9.41-.06-1-2.88-2.39-3.2-4.83-2.37-5.26,1.8-9.49.08-13.05-4.42,6-2,11.81-1.26,17.53-1.28,22.49-.05,45,.08,67.47-.11,3.84,0,6.32.63,6.71,5.2H473.07v.65H546c-.3,1.35-2.16,2-1,3.36q-35.82.14-71.65.24C469.43,235.4,465.42,235.8,461.64,234.18Z"/><path class="cls-8" d="M660,88a5.25,5.25,0,0,1-4,4c-1.47-8.63,2.65-16.79,2.06-25.38-.17-2.64-.08-5-3.37-5.07,0-3.91,5.86-2.6,5.27-6.73A1.94,1.94,0,0,0,658,53c-2.1-1.92.09-5.07-2-7a1.86,1.86,0,0,1-1.92-2.24c.08-1.23.87-1.64,1.93-1.76.6-1,2.16-2,0-3l-2.08,1.84c-.33-3.47,1.17-6.19,2.05-9,.79-2.54,2.9-1.63,4.58-1.77,2.35-.2,4.93.17,3.88-3.81-.14-.56,2.86-2.93,4-2.65,4,1,3.56-1.35,3.66-3.77.21-5.05,3.65-6.86,8.17-4.34.52.28.83,1.16,1.57.47,4.39-4,9.66-1,14.46-1.8a.52.52,0,0,1-.35.8c-11.93.65-20.36,6.64-26,17-.73,1.32-.49,3.1-2,4v0c-.63.93-.47,2.36-1.83,2.81-3.94,1-.93,3.89-1.61,5.77,0,1.52.86,3,.38,4.51-.56,2.94-1.44,5.83-1.46,8.86,0,6.5,0,13,0,19.48a21.52,21.52,0,0,1-.46,5.66C662.28,84.92,659.08,85.25,660,88Z"/><path class="cls-9" d="M784,174a6.34,6.34,0,0,0,.14-.78c1-2.16,3.31-2.2,5.11-3.06a.89.89,0,0,0,.7-.21,8.23,8.23,0,0,1,3.38-1.78c5.9-3.43,10.75-7.89,13.84-14.08.26-4.21,3.26-7.32,4.47-11.16,2.73-8,4.39-16.16,1.6-24.58-.48-1.43-.18-3-.35-4.47.39-1.79-.66-4.74,3.08-3.88,0,13.66.34,27.31-.87,41-1.06,0-.54-2.76-2.86-2.4,1.27,3.17,2.18,6.24-.08,9.52-.9,1.3-.32,3.37,2.2,4.08,2.18.61,2.34,2.77.26,3.48-4.25,1.45-6.82,7.85-12.74,4.48a1,1,0,0,0-.93.19C796.28,176.12,789.68,172.89,784,174Z"/><path class="cls-10" d="M750,174.18c7.85,2.63,15.89,2.69,24,1.77a3.06,3.06,0,0,1,3.15-.62,1.62,1.62,0,0,1,.87,1c.34,1.84,1.67,2,3,1.55,1.66-.49,3-.8,2.94,1.66,0,2-1.11,2.55-2.87,2.53q-5,0-10,0c-1.33,0-2.86-.08-3,1.82-.12,2.27,1.63,2.15,3.12,2.14s3.33.36,4.73-1c1.66-1.6,3.78-1,5.71-.92,2.86.12,2.48,2.42,2.11,4.08-.59,2.68-1.84.2-2.82.17-6.15-.17-12.29-.24-18.44-.32-2.16,0-4.33.07-6.49,0-1.51-.08-3.81.71-3.87-1.84-.07-3,2.49-2,4.11-2.09a30.14,30.14,0,0,0,7.19-.78C757.69,181.88,752,180.85,750,174.18Z"/><path class="cls-11" d="M734,58a17.36,17.36,0,0,1-1-1.6,8.12,8.12,0,0,1-.38-1.41c-2.16,1.93,1.91,7.2-3.87,6.92,1.88-10.45,2-20.78-2-30.85A4.23,4.23,0,0,1,728,28h2c.66,1.83,1.32,1.41,2,0,3.53-.38.82-4.18,4.63-6.38C732.75,34.43,735.93,46.3,734,58Z"/><path class="cls-12" d="M578,42.16c-2,1.93-4.13,2.17-6.79,1-5.1-2.18-11.9,1.17-15.11,5.9-2.5,3.7-4.83,7.06-4.07,11.7.15.95.1,2.36.68,2.75,3.12,2.06,3.21,5.5,4.31,8.5a.85.85,0,0,1-.09,1.24C547.29,67.52,547.16,49.56,558,43c1.33-.71,3-.76,4-2.15,1.41-1.57,3.32-.73,5-1,1.46,0,2.94-.67,4.39.1C573.46,40.88,576.17,40.16,578,42.16Z"/><path class="cls-13" d="M598,24.13c-.25-1-1-1.95.16-2.83a.85.85,0,0,1,1.14-.51,3.21,3.21,0,0,1,1.45,1.53c1.22,1.94-.74,5,2.21,6.32A5.55,5.55,0,0,1,606,30h0a7.84,7.84,0,0,1,0,8h0c-2,2.32-.15,5.63-2,8h0c-2.84.22-2.37-3.07-4.19-3.93l-1.68-.28c-.39-.08-.55-.22-.5-.43s.16-.37.26-.37l0-3a5.32,5.32,0,0,1-1.24-3.35C597,31.16,596.33,27.51,598,24.13Z"/><path class="cls-14" d="M647.24,41.07c.61-1.93,1.23-3.87,1.84-5.81.76-1,0-2.27.7-3.26,0-1.31,0-2.62,0-3.92-1-.92-.12-2.25-.69-3.26l-2.22-6.77c-1.12-.64-1.78-1.44-1-2.77.35-.57,1.43-1,1.43-.69-.05,3.28,3.7,3.17,4.68,5.44a25.81,25.81,0,0,1,0,16C651.9,42.27,651.11,43.1,647.24,41.07Z"/><path class="cls-15" d="M690,100a1.83,1.83,0,0,1,2,2c.86.74,2.39.53,2.79,1.94a50.7,50.7,0,0,0,2.05,6.62c.22,1.57.12,3.2,1,4.61a1,1,0,0,0,.27.8,1.59,1.59,0,0,1,.22,1.72c-.15.14-.31.27-.47.4-2.41,1.38-1.83-2.83-3.9-2.09h0c-2-1.55-4.09-2.93-4.85-5.72-.6-2.23-.84-2,1.57-2.83,2.08-.75.43-2.27.27-3.45C689.32,103,688.68,101.77,690,100Z"/><path class="cls-16" d="M652,36V20c2.57-.26,2.62-2.7,3.62-4.27.82-1.29,2-2.26,3.19-1.39,1.64,1.15-.23,2-.88,2.62-1.61,1.49-1.26,3.74-2.1,5.22C653.33,26.58,656.06,32.25,652,36Z"/><path class="cls-17" d="M631.27,62.14c1.94.62,1.75-1.53,2.75-2.13,1.47-2.28,2.58-5,5.85-5.19.6,2.13-2.06,4.11-.3,6.29-3.09-1.77-2.36,3.59-5,2.68-1.82-.62-2.56.54-2.58,2-.09,5.18-3.31,3.84-6.26,3.15a7.09,7.09,0,0,0,.12-.91C626.54,65,628.73,63.41,631.27,62.14Z"/><path class="cls-18" d="M600,22l-1.07-1.16c-1-1.68.45-2.63,1.11-3.82L602,15c.28,2.27,0,4.15,3,5.83,2.73,1.52.59,6.07,1.06,9.24h-4C599.65,27.78,602.46,24.25,600,22Z"/><path class="cls-19" d="M803.94,96.16c-3.43-2.54-5.64-6.53-9.81-8.19-1.57-1-4-1-4.36-3.54l.45-.49c4.41.8,8.14,3.17,11.91,5.35C804.83,90.86,805.15,93.39,803.94,96.16Z"/><path class="cls-20" d="M720.07,22.89c-.32,1,.11,3.4-1.68,2.26-2.81-1.79-5.62-.7-8.39-1.12-1.75-1.7-4.61-1.76-6-4,3.27-4.41,8.07-1,9.31.42,2.19,2.52,4.07,1,6,1.46a1.38,1.38,0,0,1,.8.09c.3.21.4.41.29.61S720.17,22.89,720.07,22.89Z"/><path class="cls-21" d="M591.17,65.94c-2.7,0-3.3-1.72-3.15-3.93.2-3-.11-5.76-2.79-7.88-2.29-1.82-.86-4.62-1.27-7C588.62,52.57,590.54,59,591.17,65.94Z"/><path class="cls-22" d="M319.9,170q4-4.2,7.91-8.42l3.84,3c-3,1.19-4.65,4.06-8,4.08,0,1.39,2.09,1.71,1.62,3.66C323.19,172.26,321.61,171,319.9,170Z"/><path class="cls-23" d="M624.1,1.07c-4.16,1.59-8.84-.08-12.76,2.82-.62.46-2.58.68-2.81-.93A2.53,2.53,0,0,1,611,.3C615.33-.11,619.72-.29,624.1,1.07Z"/><path class="cls-15" d="M701.82,123.26c.15.88.3,1.77.44,2.66-1.69,1.82-4.42-1-6,1.31a13.2,13.2,0,0,1-2.08-2.64,1.67,1.67,0,0,1,1.06-2.4,3.28,3.28,0,0,0,2.65-4.07l.2-.16c1.77-.39,1,1.59,1.92,2l0,0A7.71,7.71,0,0,1,701.82,123.26Z"/><path class="cls-24" d="M298,191a35.83,35.83,0,0,1,6.84-6.35c.35,1.29,3.83,2.76-.23,3.78-.72.18-1.2.59-1.11,1.37.21,1.9.66,4-1.92,4.55S299.69,191.64,298,191Z"/><path class="cls-25" d="M714,136a2,2,0,0,0-2,1,1.44,1.44,0,0,1-2.09,0,.54.54,0,0,1-.14-.68q1.11-2.16,2.23-4.3c-1.19-2.27.45-3.11,2-4,1.43.31,2.26-2.22,3.38-1.19,1.4,1.28-.11,2.56-.85,3.85-.53.91-.39,2.21-.54,3.34C715.23,134.61,715,135.69,714,136Z"/><path class="cls-26" d="M706.83,144.54a23.61,23.61,0,0,1,6.87,6.6c.5.66.22,1.91.3,2.89-.82,0-2.07.25-2.4-.17-2.11-2.75-4-5.65-6-8.5Z"/><path class="cls-27" d="M556.91,73.27,557,72c2.68.81,5.89-.68,8.18,2,.76.9.8,1.72-.4,3.11C561.76,76.64,558.94,75.76,556.91,73.27Z"/><path class="cls-28" d="M726,158.22a6.5,6.5,0,0,1,3.83,3.83c-2.08-.15-3.28.71-4,2.76-.65,1.8-2.1,1.27-3.07.17s-1-2.29.5-2.75A3.49,3.49,0,0,0,726,158.22Z"/><path class="cls-29" d="M709.91,137l2.09,0a15.7,15.7,0,0,0,4.33,6.36c1.65,1.3,1.83,3,1.59,4.79A29.75,29.75,0,0,1,709.91,137Z"/><path class="cls-30" d="M816,110c-2.76.38-1.69,2.68-2.11,4.22-1.65,0-1.72-1.11-1.62-2.33-.1-.62-.21-1.25-.31-1.87-1.37-1-1-2.8-2-4v0a1.43,1.43,0,0,1-.31-1.74l.51-.4C812.48,105.59,815.79,106.31,816,110Z"/><path class="cls-31" d="M599.8,42.1c2.8-.18,2.46,3,4.19,3.93,1.11,2.35,2.75,4.57,1.87,7.43l-1.72-1.62,0,0C603,48.49,600.29,45.79,599.8,42.1Z"/><path class="cls-32" d="M644,10c.69-1.2-2.36-1.92-.45-3.22,1.13-.77,2.75-1.33,3.67-.29,1.42,1.61,1,3.65,0,5.66-1.73.2-1.41-2.76-3.27-2.15Z"/><path class="cls-9" d="M808.33,173.25c1.6-2,3.82-.55,5.21-1.79.9-.79,1.87-2,2.32.25A1.75,1.75,0,0,1,814,174C812.21,174,810.38,174.47,808.33,173.25Z"/><path class="cls-33" d="M596,26c-.68,0-1.78,2.61-2-.24-.17-2.62,0-5.25,0-8.66,2.86,2.36,1.69,4.83,2,6.92A1.37,1.37,0,0,1,596,26Z"/><path class="cls-34" d="M645.89,15.28l1,2.77-4.07,3.12c2.23-3.53-2.13-5.72.33-8.51,1-.09,1.31.8,1.85,1.36Z"/><path class="cls-24" d="M308.84,181a13.48,13.48,0,0,1,4.14-4c.57,1.34,2.34,2.26.48,4.22S310.32,181.75,308.84,181Z"/><path class="cls-35" d="M720.07,22.89a4.52,4.52,0,0,0,0-.9c4-.12,5.86,2,6.09,5.79l-.18.54a.91.91,0,0,1-1-.08C724,25.87,722.07,24.34,720.07,22.89Z"/><path class="cls-36" d="M596,26c0-.66,0-1.32,0-2l1.39.19c.39,3.65-.39,7.35.47,11,0,.95,0,1.89,0,2.83H596a8,8,0,0,1,0-8C596,28.7,596,27.36,596,26Z"/><path class="cls-37" d="M706,132.14c1.06,1.08,2.26,2.07,2.3,3.78-2.54-.18-1.75,2.73-3.36,3.68C702.35,136.6,705.85,134.59,706,132.14Z"/><path class="cls-38" d="M33.16,220.6c1.67,1,3.44,1.77,4.53,3.49-1.2.57-1.92,2.44-3.76,1.3C31.78,224.06,32.94,222.27,33.16,220.6Z"/><path class="cls-39" d="M639.87,54.82c-2.37,1.25-3,4.43-5.85,5.19,0-1.32,0-2.64,0-4a3.47,3.47,0,0,1,2-2l3.72,0A2.39,2.39,0,0,1,639.87,54.82Z"/><path class="cls-34" d="M644.07,47.11c-1.08-2.69-.69-5.8-3.38-9.22,3.6,1.69,3.28,4.82,5.23,6.12C646.16,45.56,645.33,46.46,644.07,47.11Z"/><path class="cls-40" d="M596,30l0,8C592.74,35.39,592.82,32.72,596,30Z"/><path class="cls-41" d="M604.14,51.84C603.49,54,605.21,57,602,58.45c-.52-4.71-.52-4.71,2.14-6.57Z"/><path class="cls-22" d="M315,175c1-1,2-2.05,3-3.07.62,1.37,2.53,2.66.75,4.26S316.3,175.24,315,175Z"/><path class="cls-42" d="M656,46c3.67,1.48,1.34,4.67,2,7l-1,1a2.2,2.2,0,0,1-1-2Z"/><path class="cls-19" d="M806.1,99.82l-.33-1.66c.73.46,1.79-3.49,2.27.16.16,1.22.9,1.6,2,1.71a1.46,1.46,0,0,1,0,2l.12,1.87-.26.2C807.35,103.81,807.06,101.52,806.1,99.82Z"/><path class="cls-43" d="M732,28c-.29,1.81.7,3.84-.84,5.56-2.94-1.43-.68-3.77-1.14-5.56Z"/><path class="cls-44" d="M5.33,88.55c-1.35.79-2.12,2.76-4.09,1.94-.91-.38-.79-1.26-.15-2C2.49,86.82,3.86,87.06,5.33,88.55Z"/><path class="cls-45" d="M810,102.06l0-2c.11-1.42.88-2.1,2.29-1.86.39.06,1.08.61,1,.74A4.23,4.23,0,0,1,810,102.06Z"/><path class="cls-26" d="M715.66,152.72a9,9,0,0,0,2.69,5C713.39,156.16,713.31,156,715.66,152.72Z"/><path class="cls-46" d="M645,14l-1.85-1.36a11.39,11.39,0,0,0-4.12-4c2.2-1.51,3,2,5,1.36h0C644.32,11.37,644.65,12.69,645,14Z"/><path class="cls-47" d="M656,39c.12-.89-.26-2.19.92-2.4s1.06,1,1.06,1.75c0,1.54.43,3.37-2,3.65Z"/><path class="cls-40" d="M597.88,41a.91.91,0,0,1,.24.8c-.37,1.19.51,2.83-.91,3.58-1,.53-1.36-.68-1.63-1.35C594.67,41.82,596.93,41.9,597.88,41Z"/><path class="cls-48" d="M597.86,35.21c-1.66-3.59-.75-7.3-.47-11l.56-.1Z"/><path class="cls-49" d="M780.26,174.19l3.68-.23c-.81,3.76-4.09,1.21-5.94,2.33l-.06-.45C777.82,174,779.51,174.78,780.26,174.19Z"/><path class="cls-22" d="M332.87,155.74a4.63,4.63,0,0,1,2.14-2.67c.6,1,1.51-.11,2.62.63C335.93,154.5,335.42,157,332.87,155.74Z"/><path class="cls-50" d="M722,154.07c1.93.55,2.19,2.57,3.34,3.81C722.5,158.1,720.21,157.87,722,154.07Z"/><path class="cls-11" d="M736,66c-3.51-1.47-2.09-3.76-1-6C735.33,62,736.35,63.92,736,66Z"/><path class="cls-51" d="M779.7,80.22,785,80l1.17,1.83-.36.58a3.63,3.63,0,0,1-1.94.57,5.31,5.31,0,0,1-2-.37C780.85,82.08,779.79,81.58,779.7,80.22Z"/><path class="cls-15" d="M694,116c.65,1.33.71,2.57-.73,3.4-.19.11-1-.32-1.06-.61-.39-1.5,0-2.63,1.79-2.79Z"/><path class="cls-52" d="M690,100a6.79,6.79,0,0,0,1,4c-3.2.31-3.07-1.86-3-4Z"/><path class="cls-8" d="M656,52a2.07,2.07,0,0,1,1,2c-1,.14-2.17,1.73-2.78-.24C653.81,52.49,655,52.17,656,52Z"/><path class="cls-38" d="M40,225.29l4.35,2.59C41.51,229.31,40.58,227.59,40,225.29Z"/><path class="cls-53" d="M573,78.81a9.24,9.24,0,0,1,8,0Z"/><path class="cls-54" d="M627,4c-2.13,1.62-4.22-.63-6.35,0A7.4,7.4,0,0,1,627,4Z"/><path class="cls-55" d="M233.11,206.08c-1.1,1.35-2.21,2.69-4.13,2.87C227.79,204.3,232,207.46,233.11,206.08Z"/><path class="cls-55" d="M227.88,210a9.86,9.86,0,0,1-2.73,4.35C223.7,211.45,225.51,210.56,227.88,210Z"/><path class="cls-56" d="M731,163c3-1.1,3.83,1.21,5,3.08C733.84,165.82,732.55,164.21,731,163Z"/><path class="cls-51" d="M786.17,81.83c1.57.28,3.5-.13,4,2.11l-.35.24a2.38,2.38,0,0,1-1.78.64,3.59,3.59,0,0,1-1.24-.39,2,2,0,0,1-1-2.23Z"/><path class="cls-35" d="M728,28c0,1.07-.08,2.14-.13,3.21-2-.09-2.57-1.14-2.12-3,.15-.16.3-.32.45-.5C726.79,27.86,727.53,27,728,28Z"/><path class="cls-36" d="M600,17.05l-1.11,3.82a4.92,4.92,0,0,1-.82.43C597.34,19.24,597.62,17.66,600,17.05Z"/><path class="cls-20" d="M695.87,15a1.57,1.57,0,0,1,.35-.8c1.93.61,4.09-.39,5.95.81Z"/><path class="cls-22" d="M334.24,162.06c-.63-.92-.95-1.26-.9-1.33a4.07,4.07,0,0,1,1.25-1.32c.51-.25.91.12.63.76S334.62,161.33,334.24,162.06Z"/><path class="cls-38" d="M36.5,229.72c-.55.09-1-.06-.83-.68a2.09,2.09,0,0,1,.67-1.18c.15-.12.9.17,1,.43C37.66,229,37.06,229.4,36.5,229.72Z"/><path class="cls-57" d="M561.93,40.87c-.6,2-2.2,2.25-4,2.15A7.65,7.65,0,0,1,561.93,40.87Z"/><path class="cls-57" d="M571.31,39.92c-1.46-.31-3,1.28-4.39-.1A4.44,4.44,0,0,1,571.31,39.92Z"/><path class="cls-58" d="M77.57,206.41c-24.41-.76-44.1-21.33-43.23-45.15.92-25.22,21.23-44,46.6-43.22,23.64.78,42.73,21.64,41.93,45.83C122.07,187.82,101.47,207.16,77.57,206.41Z"/><path class="cls-58" d="M575.22,240.11c15,0,29.95.16,44.92-.07,3.88-.06,4.68,1.2,4.65,4.8-.13,14.64,0,29.27.11,43.9-.46,1.65-1.76,1.78-3.16,1.78-15.14,0-30.28.05-45.43,0-.62,0-.82-.46-1.18-.77l.09.1a2.57,2.57,0,0,1-1-2.16c.57-14.77.48-29.55,0-44.33A4,4,0,0,1,575.22,240.11Z"/><path class="cls-4" d="M575.22,240.11q-.62,24.84,0,49.7c-1,.84-1.19,1.76.28,2.09a18.71,18.71,0,0,0,4,.13c13.32,0,26.63,0,39.94,0,2,0,4.51-.7,4.6,2.84S621.9,298,619.69,298q-19.73,0-39.44,0c-2.29,0-4.31.1-4.35-3.18,0-3.46-5,.23-5.33-3.31,0-.18-1.23,2.24-1.75.13-.19-.78,0-2.73,1.81-2.23,2.56.72,2.1-1.17,2.57-2.46a15.39,15.39,0,0,0,.81-5.38c0-10.32,0-20.63,0-31,0-1.37.35-2.88-1.87-4v40.65l-1.11,0V270.15c0-7-.21-14,.08-21C571.23,245.79,572,242.28,575.22,240.11Z"/><path class="cls-4" d="M575.13,289.71q22.54,0,45.1,0c1.6,0,3.34.43,4.67-1,0,2.13-1.42,2.29-3,2.29H577.55C576.51,291,575.57,290.83,575.13,289.71Z"/><path class="cls-4" d="M625.14,292.61c3.22-.66,5.83-1.62,4.93-5.73C632.11,292.21,631.05,293.48,625.14,292.61Z"/><path class="cls-59" d="M812.07,144.2c-.6,3.81-2.68,6.89-4.88,9.91-5.36-1.43-5.94-6.73-6.79-10.49-.78-3.43-2.6-8.29,1.6-11.59,1.9,2.11.62,4.8,1.27,7.16.48,1.76.59,3.59,2.39,5.57-3-8.51-4-16.54-1.65-24.72,2.45-.36,1.84-2.28,2-3.84.18-1.84-.54-3.84,1.26-6.45,1.21,4,.49,7.17.73,10.29,2.07,5.18.8,10.47.53,15.71a11.91,11.91,0,0,1,.47,3.8,3,3,0,0,0,1,2.48h1C812.8,142,812.57,143.05,812.07,144.2Z"/><path class="cls-60" d="M696,111c-1.17-2.11-2.74-4.11-1.95-6.79a2,2,0,0,1,1.58-1.1,6.6,6.6,0,0,0,5.8-3.35c.78-1.17,2.47-.73,3.28-1.84a7.31,7.31,0,0,1,.94,0,11.52,11.52,0,0,0,5.19-3l1-1c.92-.77,2.29-.78,3.05-1.83h0a2.16,2.16,0,0,1,2.83-.09c.93.36,3.16.47,2.15,1.67-4.24,5-8.34,10.57-16,10.47-1.34,1-.61,3-2,4a5.25,5.25,0,0,1-4,4C696.83,112.64,696.55,111.6,696,111Z"/><path class="cls-61" d="M804,120c0,9.22-1.07,18.57,4,27.23-4.23-1.81-6.64-4.26-6.07-8.75a50.14,50.14,0,0,0,0-6.49c-1.56-7.17.78-14.18.77-21.34C804.59,113.67,803.7,116.93,804,120Z"/><path class="cls-62" d="M748,84v-2l.6-.57c9.95-1.78,19.9-3.32,29.88-.12,1,.53,2.53.89,2.44,2.15-.11,1.57-1.8,2-3,1.92C767.93,85,757.86,86.62,748,84Z"/><path class="cls-63" d="M748,84h32.56l-2.59-2c1.42-1.15,2.9-.51,4.37-.16l1.64.27a9.07,9.07,0,0,0,3.3,1.72.7.7,0,0,1,.69.26A1.21,1.21,0,0,1,788,86a1.85,1.85,0,0,0-2,2,2.55,2.55,0,0,1-2.6.32c-7.19-2-14.53-.39-21.77-.94-3.24-.25-6.69.9-9.63-1.4C750.89,84.91,748,87.31,748,84Z"/><path class="cls-64" d="M752,86c9.23,0,18.46,0,27.69,0,1.65,0,3.84-.78,4.31,2-1.89,1.9-4.32,1.22-6.57,1.35-2.45.14-5-.3-7.22,1.14a3.82,3.82,0,0,1-2.54,0c-2.88-1.7-6.07-.88-9.13-1.07-2.25-.14-4.63.36-6.54-1.38Z"/><path class="cls-65" d="M768,90h2c4-1.92,8.31-.84,12.47-.76,1.42,0,2.4,1.06,1.52,2.75H768a27.43,27.43,0,0,1-16,0V90A27.6,27.6,0,0,1,768,90Z"/><path class="cls-66" d="M812.07,144.2A2.41,2.41,0,0,0,811,142c2.09-6.71,4-13.45,2.72-21L812,123.62c.47-4.38-.93-8,.26-11.71l1.62,2.33c1.44,8.33,2.22,16.67.09,25C813.53,141,813.61,142.9,812.07,144.2Z"/><path class="cls-67" d="M784,92c-.33-2.41-2.2-2-3.75-2-3.42,0-6.83,0-10.24,0,.33-2.4,2.19-2,3.75-2,3.42,0,6.83,0,10.25,0h2C785.8,89.6,786.68,91.71,784,92Z"/><path class="cls-68" d="M808,137q0-8.49,0-17c4,1.84,1.72,5.51,2.15,8.26.39,2.45-.71,5.14-1.15,7.73C809.39,137.09,808.89,137.25,808,137Z"/><path class="cls-67" d="M768,90H752V88c4.07,0,8.15,0,12.23,0C765.8,88.06,767.67,87.63,768,90Z"/><path class="cls-69" d="M752,92h16a2.06,2.06,0,0,1-2.33,2H754.32A2.05,2.05,0,0,1,752,92Z"/><path class="cls-70" d="M740.09,82.08c3.45.24,6.33-2.52,9.86-1.88.47,1.81-1.55,1-2,1.82v0a24.16,24.16,0,0,1-12,2C736.33,81.24,739.05,83.42,740.09,82.08Z"/><path class="cls-71" d="M720.07,90.07c2.62-2.15,5.82-3.08,8.91-4.26a.65.65,0,0,1,1,.28C727.28,88.88,724.1,90.54,720.07,90.07Z"/><path class="cls-72" d="M714,128l-2,4c-3.09-.89-2.25-2.54-.73-4.16C712.11,127,713.29,124.93,714,128Z"/><path class="cls-73" d="M806.1,99.82c2,.82,2.17,3.19,3.79,4.31l.06,1.94c-.69.11-1.61,1.56-1.71.8C807.92,104.36,805,102.69,806.1,99.82Z"/><path class="cls-74" d="M751.91,168.38c-.13,1.25-1,1.63-2,1.55-.85-.06-1.74-.45-1.08-1.47a3.88,3.88,0,0,1,2.1-1.8C751.92,166.46,751.91,167.58,751.91,168.38Z"/><path class="cls-75" d="M788,86c0-.62,0-1.25,0-1.87l1.89,0L794.13,88C791.58,88.92,790.1,86.54,788,86Z"/><path class="cls-76" d="M789.27,170.18c-1.09,2-3.12,2.53-5.11,3.07C783.71,168.62,787.07,170.38,789.27,170.18Z"/><path class="cls-77" d="M780.26,174.19l-2.32,1.65-4,.11C775.27,172.5,778.1,174.54,780.26,174.19Z"/><path class="cls-78" d="M740.09,82.08,736,84,734,84C735.12,80.48,738,82.55,740.09,82.08Z"/><path class="cls-29" d="M714,136a1.83,1.83,0,0,1,2-2c-.21,1.15.57,2.69-.77,3.36C714.2,137.93,714.2,136.7,714,136Z"/><path class="cls-79" d="M702,108c.19-1.55-.7-3.64,2-4C703.81,105.62,704.71,107.71,702,108Z"/><path class="cls-73" d="M810,106.09a4.71,4.71,0,0,1,2,4C808.22,110.27,810.75,107.34,810,106.09Z"/><path class="cls-80" d="M717.81,91.91,715,92c1-2.19,3-2.07,4.89-2.06Z"/><path class="cls-66" d="M808,137l1-1a2.09,2.09,0,0,1,1,2c-1.29.58.64,3.31-2,3C808,139.7,808,138.36,808,137Z"/><path class="cls-81" d="M696,111l1.94,1c0,1.06-.06,2.11-.1,3.16A4.19,4.19,0,0,1,696,111Z"/><path class="cls-81" d="M700,120l-1.92-2c0-.66,0-1.31,0-2C700.62,116.47,699.9,118.43,700,120Z"/><path class="cls-68" d="M808,141l2-3v4A2,2,0,0,1,808,141Z"/><path class="cls-78" d="M730,86.09l-1-.28a3.55,3.55,0,0,1,4.26-1.65Z"/><path class="cls-82" d="M793.35,168.19c-1,.93-1.78,2.08-3.38,1.78C790.22,167.71,791.8,168,793.35,168.19Z"/><path class="cls-83" d="M701.82,123.26c-1-.85-1.94-1.73-1.82-3.22C702.11,120.26,702.11,121.68,701.82,123.26Z"/><path class="cls-84" d="M725.74,28.28c.18,1.37,1.22,2.11,2.12,3,4.73,10.1,4.86,20.34.93,30.7l-.4,0L728,62q0-8,0-16c-.9-1.25-1.84-1.53-3.1-.37-.8.73-1.78,1.4-2.89.37h0a11.55,11.55,0,0,1,0-10h0c1.87-1.59.14-4.41,2-6l1-1.79A2.11,2.11,0,0,1,725.74,28.28Z"/><path class="cls-85" d="M704,20c2.36.8,5.16.94,6,4h-2c-4,2.6-8.41.88-12.61,1.37-2.51,0-5.2-.58-6.81,2.22L688,28h-4c-2-2.61-.22-4.38,1.34-6.2,1.34-.72,2.26-2.15,3.93-2.32,4.9.41,9.73,2.86,14.73.52Z"/><path class="cls-86" d="M670,78c0,1,0,2,0,3a1,1,0,0,1-.34,1.47,3.4,3.4,0,0,1-4.07-.49,7.53,7.53,0,0,1-1-4.23c-.34-7.75.88-15.57-1.11-23.23a2.18,2.18,0,0,1,2-1.43A3.49,3.49,0,0,1,668,54h0c1.86,2.66,1.26,5.71,1.38,8.65C669.6,67.8,668.88,73,670,78Z"/><path class="cls-20" d="M689,20c-1.06.58-1.46,2.16-3,2a2.13,2.13,0,0,1-3,0c6-4.78,12.69-7.15,20.57-5.54-.5,2.29-2.83,2-3.58,3.53C696.34,22.58,692.68,20.61,689,20Z"/><path class="cls-87" d="M666,82h4a35.27,35.27,0,0,1,18,0V84l-1.75.16c-6.79.83-13.61.16-20.4.38a6.54,6.54,0,0,1-1.71-.17,1.81,1.81,0,0,1-.39-2.3A1.64,1.64,0,0,1,666,82Z"/><path class="cls-88" d="M670,78c-2.76-.46-2-2.65-2-4.29-.07-6.57,0-13.14,0-19.7a1.82,1.82,0,0,1,2,2,50,50,0,0,1,0,22Z"/><path class="cls-89" d="M670,78q0-11,0-22a2,2,0,0,1,2,2.34q0,8.67,0,17.33A2,2,0,0,1,670,78Z"/><path class="cls-90" d="M708,28C705.25,31,690.76,31,688,28h0c5-2.91,10.42-.73,15.61-1.38A5.9,5.9,0,0,1,708,28Z"/><path class="cls-91" d="M708,28h-4c-2.17-1.7-4.73-.74-7.12-1-1.81-.2-3.81-.15-2.89-3h14Z"/><path class="cls-92" d="M722,46c1.3,0,1.86-1.1,2.75-1.74s1.46-2.32,2.64-1.42c.64.48.43,2.07.6,3.16-1.77.08-1.81,1.4-2.13,2.71-.41,1.73-1,3.5-3.43,3.49C721.55,50.2,722.19,48.08,722,46Z"/><path class="cls-93" d="M688,82l-18,0V81c5.13-1.73,10.43-.78,15.67-1A2,2,0,0,1,688,82Z"/><path class="cls-87" d="M706,80.05c-3.64,2.4-7.86,2.56-12,3.08.14-.71-3.07-1.9.3-2.16,1.21-.09,1.55-.91,1.66-1.94h0C699.2,80.68,702.71,79.37,706,80.05Z"/><path class="cls-94" d="M683,22h3c-.55,2-2.77,3.51-2,6h0a2.85,2.85,0,0,1-4,0C679.47,25.26,681.18,23.62,683,22Z"/><path class="cls-95" d="M689,20c3.66,0,7.32.9,11,0h4c-.74,3.25-3.36,1.8-5.21,1.95A15.8,15.8,0,0,1,689,20Z"/><path class="cls-96" d="M722,36q0,5,0,10c-1.79-1.69-2.9-9.4-1.51-11A12.59,12.59,0,0,1,722,36Z"/><path class="cls-97" d="M666,54h-1.93c-1-1.75-.66-3.54-.17-5.33.06-1.47.13-2.94.2-4.41.12-.57.4-.64.84-.29a2.22,2.22,0,0,0,1,2A7.81,7.81,0,0,1,666,54Z"/><path class="cls-98" d="M664.94,44a2.1,2.1,0,0,0-.84.29c-2.92-5.78-2.91-5.81,2.06-6.19A2.07,2.07,0,0,1,666,41,4.1,4.1,0,0,0,664.94,44Z"/><path class="cls-99" d="M666,54c0-2.67,0-5.33,0-8,4,1.82,1.15,5.38,2,8Z"/><path class="cls-100" d="M724,62c-3.7-1.84-2-4.82-1.22-7.28.23-.73,1,.62,1.23,1.29A5,5,0,0,1,724,62Z"/><path class="cls-101" d="M724,62c0-2,0-4,0-6C727.08,58,727.11,60,724,62Z"/><path class="cls-87" d="M696,79c-2.42,1.17-4.83,1.65-7.2-.24,2.39.33,4.82-1.36,7.2.24Z"/><path class="cls-102" d="M724,30c-.74,2,1.58,5-2,6C722.69,34,720.36,31,724,30Z"/><path class="cls-103" d="M718,74c-1.78,1.64-3.6,3.2-6,3.81C713.38,75.62,714.46,72.89,718,74Z"/><path class="cls-104" d="M666,41c.07-1,.13-1.95.2-2.92L667.93,36C667.1,37.6,670.14,40.72,666,41Z"/><path class="cls-105" d="M680,28h4c-.12,1.83-1.34,2.2-2.79,1.88C680.39,29.73,679,29.52,680,28Z"/><path class="cls-104" d="M667.94,36a5.6,5.6,0,0,1,2-4C669.38,33.33,672.2,36.38,667.94,36Z"/><path class="cls-54" d="M633,11a8.1,8.1,0,0,0-5-1c-3.35,2.13-5.54-.39-8-2h-4.31c3.54-4.44,14.36-2.66,17.29,3Z"/><path class="cls-106" d="M636,54.06a1.84,1.84,0,0,1-2,2c-1.49-.7-2.34,2.73-3.67.8a3.84,3.84,0,0,1,.51-4.62c.77-.86,1.65-1.61,2.43-2.46,1.06-1.14,2.36-2.4,3.79-1.27,1.81,1.43.53,2.88-.66,4.16C636.13,53,636.14,53.58,636,54.06Z"/><path class="cls-106" d="M620.2,64c-6.71.32-6.72-5.94-10.14-9.46,3.22-.83,5.36-1.21,6.39,2.58C617.12,59.58,618.88,61.7,620.2,64Z"/><path class="cls-106" d="M631.27,62.14A19.14,19.14,0,0,1,625.86,68c-3,.18-5.56-.19-5.86-4C624.07,65.28,627.21,61,631.27,62.14Z"/><path class="cls-107" d="M620,8.05c3-.81,4.94,2.78,8,2-2.18,2.33-5.39,2.7-11.46,1.24C617,9.38,620.26,10.51,620,8.05Z"/><path class="cls-106" d="M622.6,61.43c-1.15-2.9-.25-6.33-2.35-9.11-.9-1.19.71-2.08,2.25-2.32,2-.31,1.48,1,1.48,2,0,3.1,0,6.2,0,9.3Z"/><path class="cls-31" d="M604,46c-.06-2.84-1.33-6,2-8C605.14,40.65,608,44.19,604,46Z"/><path class="cls-31" d="M606,38V30Q610.83,34,606,38Z"/><path class="cls-54" d="M633,11c2.15-1.5,4.24-.33,6.34.45C637.2,12.69,635.05,14,633,11Z"/><path class="cls-106" d="M625.2,46.36c.94,1.46,1.15,2.57-.3,3.44a3.22,3.22,0,0,1-.9.23C624.21,48.88,623.49,47.5,625.2,46.36Z"/><path class="cls-34" d="M649.1,24.82a4,4,0,0,1,.69,3.26c-.33.33-.62.85-1,1-1.07.29-.83-.68-.73-1.1C648.31,26.87,648.74,25.86,649.1,24.82Z"/><path class="cls-34" d="M649.78,32a3.82,3.82,0,0,1-.7,3.26C650.23,34.37,646.16,32.35,649.78,32Z"/><path class="cls-108" d="M748,82l2-1.82c9.92-2.21,19.84-1.67,29.75,0l2.64,1.68-4.37.16c-5.41-.15-10.49-3.42-16-1.94C757.35,81.34,752.81,82.62,748,82Z"/><path class="cls-109" d="M664,84.07l22.28.07c-7.33,1.87-14.77.47-22.16.85q-.47-.24-.36-.57C663.79,84.18,663.87,84.07,664,84.07Z"/><path class="cls-110" d="M664,84.07c0,.31.07.62.12.92-2.35-.32-1.78,3.31-4.09,3-1.42-.15-2.17-.92-1.86-2.34.52-2.43,2.63-1.37,4.09-1.74a1.09,1.09,0,0,1,1.73.12Z"/><path class="cls-111" d="M702,100.11c-.94,3.09-3.41,3.75-6.21,3.86-.3-1.15.6-1.45,1.33-1.87l2.8-2.17A1.5,1.5,0,0,1,702,100.11Z"/><path class="cls-112" d="M694.39,88.59c-2.55,2-4.17,1.35-6.35,1C689.91,87.26,691.66,88.16,694.39,88.59Z"/><path class="cls-113" d="M710.88,94.83c-.54,3-2.52,3.64-5.19,3A7,7,0,0,1,710.88,94.83Z"/><path class="cls-114" d="M702,100.11,700,99.93c.63-3,3.08-1.62,4.8-2Z"/><path class="cls-52" d="M697.15,102.1,695.82,104l-1.73.24c-.7-.73-1.4-1.45-2.09-2.18Z"/><path class="cls-80" d="M715,92c-.14,2.08-1.58,2-3.05,1.83C712.2,92,713.54,91.94,715,92Z"/><path class="cls-115" d="M663.9,48.69c.05,1.78.11,3.56.17,5.33,3.22,4.9,1.59,10.41,1.89,15.66.17,2.77,0,5.57,0,8.35a1.78,1.78,0,0,1-2.24.12,3,3,0,0,1-.65-1.49c-.58-6.52.77-13.12-.8-19.6A20.56,20.56,0,0,1,663.9,48.69Z"/><path class="cls-116" d="M662.3,57.06c1.86,1.14,1.71,3,1.7,4.8,0,5.4,0,10.8,0,16.2a1.27,1.27,0,0,1-1.87,0A119.29,119.29,0,0,1,662.3,57.06Z"/><path class="cls-109" d="M662.1,78l1.87,0v0a2.9,2.9,0,0,1,.08,4L664,84.07,662.23,84Q662.16,81,662.1,78Z"/><path class="cls-58" d="M678.11,16.68c-1.42,1.48-2.26,2.48-3.93,2.49C673.84,16.34,675,15.67,678.11,16.68Z"/><path class="cls-117" d="M600,22c.7-2.28,1.63-2.15,1.89,0a70.21,70.21,0,0,1,.09,8C598,28.18,600.83,24.66,600,22Z"/><path class="cls-75" d="M787.28,83.89c-1.49.17-3,.42-3.3-1.72l1.88,0C786.34,82.76,786.81,83.33,787.28,83.89Z"/><path class="cls-118" d="M694,24c.61,3,3,1.63,4.76,2s4.47-1.25,5.25,2H688C687.37,22.76,691.25,24.25,694,24Z"/><path class="cls-119" d="M664.06,82c0-1.32-.06-2.64-.08-4h2v4Z"/></g></g></svg>