<svg xmlns="http://www.w3.org/2000/svg" xmlns:xlink="http://www.w3.org/1999/xlink" viewBox="0 0 127.25 97.21"><defs><style>.cls-1{fill:none;}.cls-2{fill:#231f20;}.cls-3{clip-path:url(#clip-path);}.cls-4{fill:#fff;}</style><clipPath id="clip-path"><path class="cls-1" d="M24.07,21.6a6.33,6.33,0,1,0,0,12.65H46V21.6Z"/></clipPath></defs><g id="Layer_2" data-name="Layer 2"><g id="Layer_1-2" data-name="Layer 1"><path class="cls-2" d="M8.12,73.19a2.92,2.92,0,0,1-.83,2.08,2.7,2.7,0,0,1-2,.87H1.46v4.37H0V70.24H5.28a2.66,2.66,0,0,1,2,.88A2.88,2.88,0,0,1,8.12,73.19Zm-1.45,0a1.42,1.42,0,0,0-.41-1,1.31,1.31,0,0,0-1-.43H1.46v2.9H5.28a1.31,1.31,0,0,0,1-.43A1.42,1.42,0,0,0,6.67,73.18Z"/><path class="cls-2" d="M18.84,80.51,16.4,76.14H13.77v4.37H12.31V70.24h5.28a2.66,2.66,0,0,1,2,.88,3,3,0,0,1,.16,4,2.78,2.78,0,0,1-1.7,1l2.47,4.41ZM19,73.18a1.42,1.42,0,0,0-.41-1,1.31,1.31,0,0,0-1-.43H13.77v2.9h3.82a1.31,1.31,0,0,0,1-.43A1.42,1.42,0,0,0,19,73.18Z"/><path class="cls-2" d="M25.78,80.51V70.24h1.46V80.51Z"/><path class="cls-2" d="M39,80.51,34.3,73.1v7.41H32.85V70.24h1.39l4.67,7.43V70.24h1.45V80.51Z"/><path class="cls-2" d="M49.69,71.73v8.78H48.23V71.73h-3V70.24h7.51v1.49Z"/><path class="cls-2" d="M78,71.73v8.78H76.53V71.73h-3V70.24H81v1.49Z"/><path class="cls-2" d="M93.67,76.45a4.05,4.05,0,0,1-1.19,3,4,4,0,0,1-5.74,0,4.12,4.12,0,0,1-1.18-3V70.24H87v6.21a2.73,2.73,0,0,0,.76,1.91,2.54,2.54,0,0,0,1.85.79,2.47,2.47,0,0,0,1.83-.79,2.67,2.67,0,0,0,.77-1.91V70.24h1.45Z"/><path class="cls-2" d="M107.46,75.38A5,5,0,0,1,106,79a4.72,4.72,0,0,1-3.5,1.5H98.74V70.24h3.76a4.7,4.7,0,0,1,3.5,1.52A5,5,0,0,1,107.46,75.38Zm-1.45,0a3.6,3.6,0,0,0-1-2.58,3.29,3.29,0,0,0-2.47-1.07h-2.31V79h2.31A3.32,3.32,0,0,0,105,78,3.6,3.6,0,0,0,106,75.38Z"/><path class="cls-2" d="M111.34,80.51V70.24h1.45V80.51Z"/><path class="cls-2" d="M127.25,75.38a5.18,5.18,0,0,1-1.5,3.72,5,5,0,0,1-7.18,0,5.35,5.35,0,0,1,0-7.43,4.91,4.91,0,0,1,7.18,0A5.17,5.17,0,0,1,127.25,75.38Zm-1.45,0a3.71,3.71,0,0,0-1.08-2.67,3.51,3.51,0,0,0-5.12,0,3.83,3.83,0,0,0,0,5.33,3.51,3.51,0,0,0,5.12,0A3.7,3.7,0,0,0,125.8,75.38Z"/><path class="cls-2" d="M69.91,77.54c0,1.73-1.74,3.12-3.87,3.12s-3.88-1.39-3.88-3.12v-.61h1.71v.61c0,.89,1,1.62,2.18,1.62s2.16-.73,2.16-1.62-.8-1.29-2.13-1.62c-2.23-.55-3.59-1.34-3.59-3a3.6,3.6,0,0,1,7.1,0v.33H67.88v-.33A1.74,1.74,0,0,0,66,71.37,1.83,1.83,0,0,0,64.15,73c0,.81.85,1.16,2.1,1.47C68.54,75,69.91,75.8,69.91,77.54Z"/><path d="M49.82,0a4.63,4.63,0,0,0-4.63,4.63V51.22a4.63,4.63,0,0,0,4.63,4.63H67.6V0ZM66.64,54.9H49.82a3.68,3.68,0,0,1-3.68-3.68V4.63A3.69,3.69,0,0,1,49.82,1H66.64Z"/><path class="cls-2" d="M46.14,34.65h-22a6.73,6.73,0,0,1,0-13.45h22Zm-22-12.5a5.77,5.77,0,0,0,0,11.54H45.19V22.15Z"/><g class="cls-3"><rect class="cls-2" x="27.45" y="35.88" width="32.09" height="0.83" transform="translate(-12.92 41.43) rotate(-45.05)"/><rect class="cls-2" x="19.94" y="28.37" width="32.09" height="0.83" transform="translate(-9.81 33.89) rotate(-45.02)"/><rect class="cls-2" x="12.43" y="20.86" width="32.09" height="0.83" transform="translate(-6.7 26.39) rotate(-45.04)"/><rect class="cls-2" x="23.69" y="32.13" width="32.09" height="0.83" transform="translate(-11.37 37.67) rotate(-45.04)"/><rect class="cls-2" x="16.18" y="24.62" width="32.09" height="0.83" transform="translate(-8.26 30.15) rotate(-45.04)"/><rect class="cls-2" x="8.67" y="17.11" width="32.09" height="0.83" transform="translate(-5.15 22.64) rotate(-45.05)"/><rect class="cls-2" x="31.2" y="39.64" width="32.09" height="0.83" transform="translate(-14.48 45.19) rotate(-45.05)"/><rect class="cls-2" x="27.45" y="35.88" width="32.09" height="0.83" transform="translate(-12.92 41.43) rotate(-45.05)"/><rect class="cls-2" x="8.67" y="17.11" width="32.09" height="0.83" transform="translate(-5.15 22.64) rotate(-45.05)"/><rect class="cls-2" x="4.92" y="13.35" width="32.09" height="0.83" transform="translate(-3.59 18.88) rotate(-45.05)"/><rect class="cls-2" x="29.41" y="37.84" width="32.09" height="0.83" transform="translate(-13.73 43.39) rotate(-45.05)"/><rect class="cls-2" x="21.9" y="30.33" width="32.09" height="0.83" transform="translate(-10.62 35.87) rotate(-45.04)"/><rect class="cls-2" x="14.38" y="22.82" width="32.09" height="0.83" transform="translate(-7.51 28.35) rotate(-45.05)"/><rect class="cls-2" x="25.65" y="34.08" width="32.09" height="0.83" transform="translate(-12.18 39.59) rotate(-45)"/><rect class="cls-2" x="18.14" y="26.58" width="32.09" height="0.83" transform="translate(-9.07 32.11) rotate(-45.05)"/><rect class="cls-2" x="10.63" y="19.06" width="32.09" height="0.83" transform="translate(-5.96 24.59) rotate(-45.04)"/><rect class="cls-2" x="33.16" y="41.6" width="32.09" height="0.83" transform="translate(-15.29 47.16) rotate(-45.05)"/><rect class="cls-2" x="29.41" y="37.84" width="32.09" height="0.83" transform="translate(-13.73 43.39) rotate(-45.05)"/><rect class="cls-2" x="10.63" y="19.07" width="32.09" height="0.83" transform="translate(-5.96 24.59) rotate(-45.04)"/><rect class="cls-2" x="6.87" y="15.31" width="32.09" height="0.83" transform="translate(-4.4 20.83) rotate(-45.04)"/></g><rect class="cls-4" x="52.32" y="5.69" width="29.61" height="44.47" rx="5.41"/><path class="cls-2" d="M76.52,50.64H57.73a5.89,5.89,0,0,1-5.89-5.89V11.1a5.89,5.89,0,0,1,5.89-5.89H76.52A5.89,5.89,0,0,1,82.4,11.1V44.75A5.89,5.89,0,0,1,76.52,50.64ZM57.73,6.17a4.94,4.94,0,0,0-4.94,4.93V44.75a4.94,4.94,0,0,0,4.94,4.93H76.52a4.93,4.93,0,0,0,4.93-4.93V11.1a4.93,4.93,0,0,0-4.93-4.93Z"/><rect class="cls-4" x="64.72" y="3.57" width="4.81" height="2.12"/><path class="cls-2" d="M70,6.16H64.24V3.09H70Zm-4.81-1h3.86V4.05H65.19Z"/><rect class="cls-4" x="64.72" y="50.16" width="4.81" height="2.12"/><path class="cls-2" d="M70,52.76H64.24V49.69H70Zm-4.81-1h3.86V50.64H65.19Z"/><path class="cls-2" d="M77.71,42.86V40.15a10.36,10.36,0,0,1-15.11-.39,11.84,11.84,0,0,1-3.16-8.29,11.9,11.9,0,0,1,3.16-8.32,10.26,10.26,0,0,1,15.11-.37V12.62h4.22V42.86Zm0-11.48a7.27,7.27,0,0,0-2.08-5.2,6.71,6.71,0,0,0-9.92,0,7.62,7.62,0,0,0,0,10.42,6.75,6.75,0,0,0,9.92,0A7.3,7.3,0,0,0,77.71,31.38Z"/><path class="cls-4" d="M81.93,41.92V13.57h3.95v9.52a9.61,9.61,0,0,1,14.16.35,11.15,11.15,0,0,1,3,7.8A11.17,11.17,0,0,1,100,39a9.73,9.73,0,0,1-14.16.36v2.54Zm5.9-5.87a6.34,6.34,0,0,0,9.3,0,7.15,7.15,0,0,0,0-9.77,6.3,6.3,0,0,0-9.3,0,7.09,7.09,0,0,0,0,9.77Z"/><path class="cls-2" d="M85.88,13.57v9.52a9.61,9.61,0,0,1,14.16.35,11.15,11.15,0,0,1,3,7.8A11.17,11.17,0,0,1,100,39a9.73,9.73,0,0,1-14.16.36v2.54H81.93V13.57h3.95m6.6,24.51a6.19,6.19,0,0,0,4.65-2,7.15,7.15,0,0,0,0-9.77,6.3,6.3,0,0,0-9.3,0,7.09,7.09,0,0,0,0,9.77,6.21,6.21,0,0,0,4.65,2M86.81,12.64H81V42.85h5.81V41.36a10.67,10.67,0,0,0,13.92-1.72,12.08,12.08,0,0,0,3.21-8.4,12.12,12.12,0,0,0-3.21-8.43,10.33,10.33,0,0,0-7.92-3.59,10.22,10.22,0,0,0-6,1.87V12.64Zm5.67,24.52a5.25,5.25,0,0,1-4-1.75,6.18,6.18,0,0,1,0-8.49,5.38,5.38,0,0,1,8,0,6.23,6.23,0,0,1,0,8.49,5.23,5.23,0,0,1-4,1.75Z"/><path class="cls-2" d="M70.68,25a5.52,5.52,0,0,1,4.19,1.87,6.5,6.5,0,0,1,0,9,5.7,5.7,0,0,1-8.39,0,6.58,6.58,0,0,1,0-9A5.53,5.53,0,0,1,70.68,25m0-1.42a6.9,6.9,0,0,0-5.21,2.3,8,8,0,0,0,0,10.94,7.11,7.11,0,0,0,10.42,0,8,8,0,0,0,0-10.94,6.93,6.93,0,0,0-5.21-2.3Z"/><path class="cls-2" d="M64.6,92.67a4.13,4.13,0,0,1-2.46-2.27,4.31,4.31,0,0,1-2.55,2.48l-.49-.75a3.6,3.6,0,0,0,2.56-3.3v-.41H59.38v-.75h5.47v.75H62.6v.4a3.42,3.42,0,0,0,2.47,3.12Zm-4.18,1h6.65v3.51h-.94V94.4H60.42Zm8.16-3.24H67.07V93.1h-.94V87h.94v2.67h1.51Z"/><path class="cls-2" d="M82.15,87v5.47h-1V90.15H79.13a2.43,2.43,0,0,1-2.6,2,2.37,2.37,0,1,1,2.59-2.77H81.2V87Zm-3.88,2.82a1.75,1.75,0,1,0-1.74,1.59A1.6,1.6,0,0,0,78.27,89.78Zm2.94,3.15h.94V97H75.62V92.93h.92v1.29h4.67Zm0,2H76.54v1.32h4.67Z"/><path class="cls-2" d="M93.53,91.94A4.29,4.29,0,0,1,91,89.6a4.34,4.34,0,0,1-2.6,2.53l-.47-.72A3.71,3.71,0,0,0,90.48,88v-.77h.93V88A3.52,3.52,0,0,0,94,91.21Zm3,4.36V97H89.6V94.5h5.67v-1H89.58v-.74h6.61v2.46H90.53V96.3Zm-.35-4.06h-.94V87h.94Z"/><path class="cls-2" d="M47.55,93.47a2,2,0,0,1-1.94-1.93c0-1.18,1-2,2.41-2s2.41.77,2.41,2a2,2,0,0,1-1.94,1.93ZM51.06,89H45v-.74h2.59V87h.94v1.23h2.57Zm-3,3.75c.91,0,1.52-.47,1.52-1.2s-.61-1.21-1.52-1.21-1.52.48-1.52,1.21S47.11,92.74,48,92.74Zm6.33-.61H52.76v5.08h-.93V87h.93v4.33h1.59Zm-3.1,3.2H44.78v-.74h2.77V93.38h.94v1.21h2.76Z"/><polygon class="cls-2" points="33.1 93.82 32.17 93.82 32.17 96.98 38.97 96.98 38.97 96.22 33.1 96.22 33.1 93.82"/><polygon class="cls-2" points="38.52 90.11 38.52 87.01 37.58 87.01 37.58 94.53 38.52 94.53 38.52 90.89 40.03 90.89 40.03 90.11 38.52 90.11"/><path class="cls-2" d="M35.35,92V88.72h1V88H30.92v.75h1V92h-1.2v.75h5.85V92Zm-2.52,0V88.72h1.63V92Z"/></g></g></svg>