<?xml version="1.0" encoding="UTF-8"?>
<svg width="230px" height="231px" viewBox="0 0 230 231" version="1.1" xmlns="http://www.w3.org/2000/svg" xmlns:xlink="http://www.w3.org/1999/xlink">
    <title>White_button</title>
    <g id="Page-1" stroke="none" stroke-width="1" fill="none" fill-rule="evenodd">
        <g id="White_button" fill-rule="nonzero">
            <path d="M115,230.5 C178.51,230.5 230,179.01 230,115.5 C230,51.99 178.51,0.5 115,0.5 C51.49,0.5 0,51.99 0,115.5 C0,179.01 51.49,230.5 115,230.5" id="Path" fill="#FFFFFF"></path>
            <path d="M110.4,19.97 L116.07,19.9 C118.8,19.87 119.88,21.02 119.91,23.28 C119.94,25.39 118.65,26.73 116.03,26.76 L110.49,26.83 L110.4,19.97 Z M107.97,37.06 L110.62,37.03 L110.52,28.97 L115.67,28.9 C118.19,28.87 119.35,29.84 119.57,32.57 C119.82,35.66 119.88,36.55 120.33,36.9 L123.16,36.86 L123.16,36.73 C122.77,36.47 122.5,35.54 122.22,32.5 C122,29.72 121.36,28.43 119.17,27.81 L119.17,27.73 C121.73,26.89 122.67,25.22 122.64,22.85 C122.6,19.65 120.23,17.55 116.78,17.59 L107.73,17.7 L107.97,37.06 Z M90.3,23.05 L95.84,21.84 C98.51,21.26 99.8,22.18 100.28,24.39 C100.73,26.45 99.74,28.02 97.17,28.58 L91.76,29.76 L90.3,23.05 Z M91.34,40.28 L93.93,39.71 L92.22,31.83 L97.25,30.73 C99.72,30.19 101.04,30.91 101.8,33.54 C102.66,36.52 102.9,37.37 103.41,37.63 L106.18,37.03 L106.15,36.9 C105.71,36.73 105.26,35.87 104.38,32.95 C103.61,30.27 102.72,29.13 100.45,28.96 L100.43,28.88 C102.77,27.54 103.36,25.71 102.86,23.4 C102.18,20.27 99.44,18.69 96.06,19.43 L87.22,21.35 L91.34,40.28 Z M79.78,43.15 C75.85,45.11 72.25,43.18 70.28,39.22 C68.3,35.24 68.93,31.18 72.86,29.23 C76.8,27.28 80.38,29.24 82.36,33.22 C84.33,37.18 83.72,41.2 79.78,43.15 M80.82,45.25 C86.03,42.66 87.4,37.16 84.83,31.99 C82.25,26.8 77.06,24.59 71.84,27.18 C66.6,29.78 65.27,35.23 67.85,40.43 C70.43,45.6 75.58,47.85 80.82,45.25 M59.46,56.6 L49.96,45.36 L53.28,42.56 C56.63,39.72 59.8,40.96 62.67,44.36 C65.54,47.75 66,51.08 62.66,53.9 L59.46,56.6 Z M58.91,60.1 L64.23,55.6 C68.66,51.86 68.49,46.99 64.77,42.58 C61.03,38.15 56.29,36.98 51.88,40.71 L46.42,45.33 L58.91,60.1 Z M29.82,71.98 L32.59,67.03 C33.92,64.65 35.46,64.29 37.44,65.39 C39.28,66.42 39.8,68.2 38.52,70.49 L35.82,75.32 L29.82,71.98 Z M43.41,82.62 L44.7,80.3 L37.67,76.37 L40.18,71.88 C41.41,69.68 42.83,69.16 45.3,70.33 C48.1,71.66 48.9,72.04 49.43,71.84 L50.81,69.37 L50.7,69.31 C50.28,69.52 49.34,69.29 46.57,68.01 C44.05,66.81 42.61,66.72 40.98,68.31 L40.91,68.27 C41.46,65.63 40.48,63.98 38.41,62.82 C35.62,61.26 32.62,62.26 30.93,65.28 L26.52,73.18 L43.41,82.62 Z M22.45,91.35 L24.07,85.92 C24.85,83.3 26.27,82.62 28.44,83.26 C30.46,83.86 31.36,85.48 30.61,88 L29.03,93.31 L22.45,91.35 Z M38.04,98.75 L38.8,96.21 L31.07,93.91 L32.54,88.98 C33.26,86.56 34.53,85.75 37.2,86.35 C40.22,87.03 41.09,87.24 41.56,86.92 L42.37,84.2 L42.25,84.16 C41.89,84.46 40.92,84.44 37.94,83.8 C35.22,83.18 33.8,83.41 32.55,85.32 L32.48,85.3 C32.44,82.6 31.12,81.21 28.85,80.53 C25.78,79.62 23.07,81.25 22.09,84.57 L19.51,93.24 L38.04,98.75 Z M34.73,110.11 C34.45,114.5 30.98,116.65 26.57,116.37 C22.13,116.09 18.94,113.52 19.21,109.13 C19.49,104.75 22.98,102.62 27.42,102.9 C31.84,103.18 35.01,105.72 34.73,110.11 M37.07,110.25 C37.44,104.44 33.36,100.51 27.6,100.14 C21.81,99.77 17.3,103.16 16.93,108.97 C16.56,114.81 20.61,118.69 26.4,119.05 C32.16,119.43 36.7,116.09 37.07,110.25 M36.32,134.48 L21.87,137.25 L21.05,132.99 C20.22,128.67 22.86,126.53 27.22,125.69 C31.59,124.85 34.71,126.08 35.53,130.37 L36.32,134.48 Z M39.1,136.68 L37.79,129.84 C36.7,124.15 32.38,121.9 26.71,122.99 C21.02,124.08 17.67,127.63 18.76,133.3 L20.11,140.32 L39.1,136.68 Z M34.82,167.7 L31.94,162.82 C30.55,160.47 31.02,158.96 32.96,157.8 C34.77,156.73 36.58,157.17 37.91,159.43 L40.73,164.2 L34.82,167.7 Z M50.85,161.3 L49.5,159.02 L42.56,163.12 L39.94,158.69 C38.66,156.52 38.93,155.03 41.18,153.48 C43.74,151.73 44.47,151.23 44.56,150.67 L43.12,148.23 L43.01,148.3 C42.98,148.77 42.31,149.47 39.81,151.22 C37.51,152.79 36.71,153.99 37.26,156.2 L37.19,156.24 C35.19,154.44 33.27,154.45 31.23,155.66 C28.48,157.29 27.83,160.39 29.59,163.36 L34.19,171.15 L50.85,161.3 Z M47.87,183.66 L44.01,179.51 C42.15,177.51 42.28,175.93 43.94,174.39 C45.48,172.96 47.34,173 49.13,174.93 L52.9,178.98 L47.87,183.66 Z M62.17,173.98 L60.36,172.04 L54.46,177.53 L50.95,173.76 C49.23,171.91 49.18,170.4 51.05,168.41 C53.17,166.15 53.78,165.51 53.75,164.94 L51.82,162.86 L51.72,162.95 C51.8,163.41 51.29,164.24 49.22,166.49 C47.31,168.52 46.78,169.86 47.79,171.9 L47.73,171.95 C45.39,170.61 43.51,171.04 41.78,172.66 C39.44,174.84 39.47,178 41.83,180.54 L47.99,187.16 L62.17,173.98 Z M70.45,182.49 C74.12,184.91 74.27,188.99 71.84,192.68 C69.4,196.39 65.57,197.89 61.91,195.48 C58.24,193.06 58.13,188.98 60.57,185.26 C63,181.57 66.78,180.08 70.45,182.49 M71.74,180.54 C66.88,177.34 61.44,178.93 58.27,183.75 C55.08,188.59 55.79,194.19 60.65,197.39 C65.54,200.61 70.91,199.01 74.1,194.17 C77.27,189.35 76.62,183.76 71.74,180.54 M92.33,193.24 L87.44,207.12 L83.34,205.68 C79.2,204.22 78.67,200.86 80.14,196.67 C81.62,192.48 84.25,190.4 88.37,191.85 L92.33,193.24 Z M95.63,191.95 L89.06,189.63 C83.59,187.7 79.48,190.31 77.56,195.75 C75.63,201.22 77.02,205.9 82.46,207.81 L89.2,210.19 L95.63,191.95 Z M120.44,211.01 L114.77,211.08 C112.04,211.11 110.96,209.96 110.93,207.7 C110.9,205.6 112.19,204.25 114.81,204.22 L120.35,204.15 L120.44,211.01 Z M122.88,193.93 L120.23,193.96 L120.33,202.02 L115.18,202.09 C112.66,202.12 111.5,201.15 111.29,198.42 C111.04,195.33 110.98,194.45 110.53,194.09 L107.7,194.13 L107.7,194.26 C108.09,194.52 108.37,195.45 108.64,198.49 C108.86,201.27 109.5,202.56 111.69,203.18 L111.69,203.26 C109.13,204.1 108.18,205.77 108.21,208.14 C108.25,211.34 110.62,213.44 114.07,213.4 L123.12,213.29 L122.88,193.93 Z M141,207.55 L135.49,208.89 C132.84,209.54 131.52,208.65 130.99,206.46 C130.49,204.41 131.44,202.82 133.99,202.19 L139.37,200.88 L141,207.55 Z M139.53,190.36 L136.95,190.99 L138.86,198.82 L133.86,200.04 C131.41,200.64 130.06,199.95 129.24,197.34 C128.3,194.38 128.04,193.54 127.53,193.29 L124.78,193.96 L124.81,194.09 C125.25,194.25 125.72,195.1 126.67,198 C127.51,200.66 128.42,201.78 130.7,201.89 L130.72,201.97 C128.41,203.36 127.87,205.21 128.43,207.51 C129.19,210.62 131.97,212.13 135.33,211.31 L144.12,209.17 L139.53,190.36 Z M151.1,187.43 C154.99,185.38 158.63,187.22 160.69,191.13 C162.76,195.06 162.24,199.13 158.35,201.18 C154.46,203.23 150.83,201.36 148.75,197.42 C146.7,193.51 147.21,189.48 151.1,187.43 M150.01,185.36 C144.86,188.08 143.63,193.61 146.32,198.71 C149.03,203.84 154.27,205.92 159.42,203.2 C164.59,200.47 165.79,194.99 163.08,189.86 C160.39,184.76 155.18,182.63 150.01,185.36 M171.22,173.68 L180.99,184.69 L177.74,187.57 C174.45,190.49 171.26,189.32 168.31,185.99 C165.36,182.66 164.82,179.35 168.09,176.46 L171.22,173.68 Z M171.69,170.18 L166.48,174.8 C162.14,178.65 162.42,183.51 166.25,187.83 C170.1,192.17 174.86,193.22 179.18,189.39 L184.53,184.64 L171.69,170.18 Z M200.6,158.28 L197.83,163.23 C196.5,165.61 194.96,165.97 192.98,164.87 C191.14,163.84 190.62,162.06 191.9,159.77 L194.6,154.94 L200.6,158.28 Z M187.01,147.64 L185.72,149.95 L192.75,153.88 L190.24,158.37 C189.01,160.57 187.59,161.09 185.12,159.91 C182.32,158.58 181.52,158.2 180.99,158.4 L179.61,160.87 L179.72,160.93 C180.14,160.72 181.08,160.95 183.85,162.23 C186.37,163.43 187.81,163.52 189.44,161.93 L189.51,161.97 C188.96,164.61 189.94,166.26 192.01,167.42 C194.8,168.98 197.8,167.98 199.49,164.96 L203.91,157.06 L187.01,147.64 Z M207.79,138.84 L206.17,144.27 C205.39,146.89 203.97,147.57 201.8,146.93 C199.78,146.33 198.88,144.71 199.63,142.19 L201.21,136.88 L207.79,138.84 Z M192.2,131.44 L191.44,133.98 L199.17,136.28 L197.7,141.21 C196.98,143.63 195.71,144.44 193.04,143.84 C190.01,143.16 189.15,142.95 188.68,143.27 L187.87,145.99 L187.99,146.03 C188.35,145.73 189.32,145.75 192.3,146.39 C195.02,147.01 196.44,146.78 197.69,144.87 L197.77,144.89 C197.81,147.59 199.13,148.98 201.4,149.66 C204.47,150.57 207.18,148.94 208.16,145.62 L210.74,136.95 L192.2,131.44 Z M195.34,119.91 C195.51,115.52 198.92,113.28 203.34,113.45 C207.78,113.62 211.04,116.11 210.88,120.5 C210.71,124.89 207.27,127.1 202.83,126.93 C198.41,126.77 195.17,124.31 195.34,119.91 M193,119.83 C192.78,125.65 196.95,129.48 202.72,129.7 C208.51,129.92 212.94,126.42 213.16,120.6 C213.38,114.75 209.23,110.98 203.44,110.76 C197.67,110.53 193.22,113.98 193,119.83 M193.52,95.68 L207.97,92.91 L208.79,97.18 C209.62,101.5 206.98,103.64 202.62,104.48 C198.25,105.32 195.13,104.09 194.31,99.8 L193.52,95.68 Z M190.75,93.49 L192.06,100.33 C193.15,106.02 197.47,108.27 203.14,107.18 C208.83,106.09 212.18,102.54 211.09,96.87 L209.74,89.85 L190.75,93.49 Z M194.41,62.2 L197.41,67.01 C198.86,69.33 198.43,70.85 196.51,72.05 C194.72,73.16 192.91,72.76 191.52,70.54 L188.59,65.84 L194.41,62.2 Z M178.54,68.99 L179.95,71.24 L186.79,66.97 L189.52,71.34 C190.86,73.48 190.62,74.97 188.4,76.57 C185.88,78.39 185.16,78.9 185.09,79.46 L186.59,81.86 L186.7,81.79 C186.71,81.32 187.37,80.61 189.83,78.8 C192.09,77.17 192.87,75.95 192.26,73.76 L192.33,73.72 C194.38,75.48 196.3,75.41 198.3,74.16 C201.01,72.47 201.58,69.35 199.75,66.42 L194.96,58.74 L178.54,68.99 Z M181.14,46.43 L185.1,50.49 C187.01,52.44 186.92,54.02 185.3,55.6 C183.79,57.07 181.94,57.07 180.1,55.19 L176.23,51.23 L181.14,46.43 Z M167.09,56.45 L168.94,58.35 L174.71,52.72 L178.31,56.4 C180.07,58.2 180.16,59.71 178.34,61.75 C176.27,64.06 175.68,64.72 175.72,65.29 L177.7,67.32 L177.79,67.23 C177.7,66.77 178.19,65.93 180.2,63.64 C182.06,61.57 182.56,60.21 181.5,58.19 L181.56,58.14 C183.94,59.42 185.8,58.94 187.49,57.29 C189.78,55.06 189.67,51.89 187.25,49.42 L180.93,42.95 L167.09,56.45 Z M158.74,47.96 C155.01,45.63 154.77,41.56 157.11,37.81 C159.46,34.04 163.25,32.45 166.97,34.77 C170.69,37.09 170.91,41.18 168.55,44.95 C166.22,48.7 162.47,50.29 158.74,47.96 M157.5,49.95 C162.44,53.03 167.83,51.31 170.89,46.42 C173.96,41.5 173.12,35.92 168.18,32.84 C163.22,29.74 157.88,31.47 154.81,36.39 C151.76,41.27 152.54,46.85 157.5,49.95 M136.7,37.54 L141.24,23.54 L145.37,24.88 C149.55,26.24 150.16,29.58 148.79,33.81 C147.42,38.04 144.84,40.18 140.68,38.83 L136.7,37.54 Z M133.44,38.91 L140.07,41.06 C145.59,42.85 149.63,40.15 151.42,34.66 C153.21,29.15 151.71,24.5 146.22,22.72 L139.42,20.51 L133.44,38.91 Z" id="Shape" fill="#000000"></path>
        </g>
    </g>
</svg>